<?xml version="1.0" encoding="UTF-8"?>
<svg version="1.1" xmlns="http://www.w3.org/2000/svg" width="512" height="512">
<path d="M0 0 C168.96 0 337.92 0 512 0 C512 168.96 512 337.92 512 512 C343.04 512 174.08 512 0 512 C0 343.04 0 174.08 0 0 Z " fill="#FEFEFE" transform="translate(0,0)"/>
<path d="M0 0 C1.38263361 -0.00514911 2.76526063 -0.01243782 4.14787292 -0.02168274 C7.87542411 -0.04008119 11.60225321 -0.02733175 15.32977366 -0.00759244 C19.24838527 0.00889517 23.16695475 -0.00003296 27.08558655 -0.00511169 C33.66492123 -0.00962197 40.24397063 0.00616936 46.82324219 0.03417969 C54.40555234 0.06621356 61.98734785 0.06621759 69.56969446 0.04896492 C76.89320824 0.03304194 84.21653524 0.03987117 91.54004097 0.05690193 C94.64306235 0.06373443 97.74593229 0.06277939 100.84895134 0.05535698 C104.51082452 0.04763508 108.17211975 0.06000982 111.83389473 0.08720589 C113.8009424 0.09725784 115.76805993 0.08796828 117.73510742 0.07788086 C126.92176826 0.17566193 134.52054957 1.75483129 142.31665039 6.75610352 C150.7823733 15.81245825 152.2035998 23.77561262 152.25415039 35.75610352 C152.28508789 37.5543457 152.28508789 37.5543457 152.31665039 39.38891602 C152.36350378 50.07148849 150.60469324 57.24663017 144.00415039 65.63110352 C144.41407227 66.2227832 144.82399414 66.81446289 145.24633789 67.42407227 C145.78516602 68.21426758 146.32399414 69.00446289 146.87915039 69.81860352 C147.41282227 70.5959082 147.94649414 71.37321289 148.49633789 72.17407227 C152.60617023 78.87118247 152.40428701 85.01750462 152.44165039 92.69360352 C152.47452148 93.85827148 152.50739258 95.02293945 152.54125977 96.22290039 C152.6025008 106.21632367 150.33111158 114.73832656 144.00415039 122.63110352 C144.41407227 123.13899414 144.82399414 123.64688477 145.24633789 124.17016602 C145.78516602 124.85852539 146.32399414 125.54688477 146.87915039 126.25610352 C147.41282227 126.92899414 147.94649414 127.60188477 148.49633789 128.29516602 C152.83044643 135.00966578 152.3708258 142.18085575 152.37915039 149.88110352 C152.40364258 151.05801758 152.42813477 152.23493164 152.45336914 153.44750977 C152.48108398 161.75272441 151.52636796 169.0289065 146.35913086 175.78051758 C144.77685518 177.51976444 144.77685518 177.51976444 145.16040039 179.63110352 C146.08216438 181.81602557 147.18184212 183.66301679 148.50415039 185.63110352 C152.94403447 192.23930307 152.25494561 199.07259733 152.31665039 206.81860352 C152.3456543 208.01291992 152.3746582 209.20723633 152.40454102 210.43774414 C152.48056594 221.0636893 150.11318324 228.11661415 142.86352539 235.90844727 C136.93297775 241.40292523 129.76945596 243.91793241 121.74267578 243.79125977 C120.52443619 243.77885254 119.30619659 243.76644531 118.05104065 243.75366211 C116.74779343 243.73384277 115.4445462 243.71402344 114.10180664 243.69360352 C112.03736705 243.68348418 109.97298349 243.68036848 107.90852261 243.67730713 C102.83565909 243.66959921 97.76405678 243.64791856 92.69189453 243.55932617 C89.1504782 243.49890307 85.61177933 243.48757382 82.06994438 243.50802612 C80.07835531 243.50614049 78.0870343 243.45207162 76.09620667 243.39697266 C69.25597552 243.35936654 69.25597552 243.35936654 63.66340637 246.83027649 C61.88737576 249.35923535 60.4318462 251.89476378 59.00415039 254.63110352 C47.78068685 268.44317479 34.44537362 277.8197396 18.00415039 284.63110352 C17.37766602 284.91598633 16.75118164 285.20086914 16.10571289 285.49438477 C-3.93967327 294.02899241 -29.18774105 292.36189482 -49.01733398 284.4675293 C-72.46418445 274.55527489 -91.69760665 257.24565351 -101.74584961 233.50610352 C-111.50254081 209.05290098 -112.10045881 183.57228382 -101.68334961 159.25610352 C-90.25645757 134.03035519 -70.79811521 116.33822659 -45.00366211 106.57641602 C-42.00453672 105.63383375 -39.10563369 105.06740158 -35.99584961 104.63110352 C-36.02727051 103.61910889 -36.02727051 103.61910889 -36.05932617 102.58666992 C-36.14339547 99.47663785 -36.19479405 96.36684592 -36.24584961 93.25610352 C-36.27936523 92.19520508 -36.31288086 91.13430664 -36.34741211 90.04125977 C-36.4690968 80.12395786 -33.85287613 72.57992522 -27.99584961 64.63110352 C-28.57334961 64.01235352 -29.15084961 63.39360352 -29.74584961 62.75610352 C-35.56623878 54.67222967 -36.61625636 46.84526445 -36.43334961 37.06860352 C-36.44043945 35.99674805 -36.4475293 34.92489258 -36.45483398 33.82055664 C-36.38294229 24.77879379 -35.19670501 17.24692323 -28.93334961 10.38110352 C-28.24112305 9.59219727 -27.54889648 8.80329102 -26.83569336 7.99047852 C-18.43374537 1.01004305 -10.70381136 -0.09819079 0 0 Z " fill="#030303" transform="translate(351.995849609375,17.368896484375)"/>
<path d="M0 0 C20.82382561 7.36474862 41.58014766 14.41562103 63.24468994 18.91571045 C71.27762223 20.67518227 76.08531582 24.21064185 81.01275635 30.68670654 C83.22842638 35.11804661 82.27606602 39.86906072 80.82525635 44.37420654 C78.35640278 48.88624927 75.94230971 51.76578335 71.26275635 53.99920654 C63.03619732 55.73944018 55.71504637 54.18660331 47.70025635 52.06170654 C46.65643799 51.79317871 45.61261963 51.52465088 44.53717041 51.24798584 C36.09028228 49.04520261 27.73844746 46.56209072 19.3916626 44.01092529 C7.91634008 40.19447924 7.91634008 40.19447924 -3.98724365 39.68670654 C-6.07057699 40.60337321 -6.07057699 40.60337321 -6.98724365 42.68670654 C-7.45871239 46.39110377 -7.73463773 48.67160359 -5.47137451 51.74554443 C-2.18946303 54.31011231 1.23940768 55.25312558 5.1963501 56.30780029 C6.00009567 56.53303375 6.80384125 56.75826721 7.63194275 56.99032593 C10.23447181 57.71536237 12.84189424 58.42047134 15.45025635 59.12420654 C17.23738436 59.61565351 19.0243309 60.10776082 20.81109619 60.6005249 C32.81342283 63.89348466 44.82839489 67.13251242 57.01275635 69.68670654 C58.66017822 70.05022217 58.66017822 70.05022217 60.34088135 70.42108154 C88.84746715 75.83002346 109.88601086 67.01368182 133.74224854 52.46917725 C139.85456887 48.74717163 146.05651024 45.18682213 152.26275635 41.62420654 C160.97925915 36.61731322 169.65253505 31.54675178 178.28796387 26.40151978 C228.95166081 -3.77456626 228.95166081 -3.77456626 246.01275635 -1.31329346 C252.95414835 0.54957213 256.4311708 3.53085638 260.01275635 9.68670654 C261.94706999 15.48964746 262.01348653 22.23718484 259.63775635 27.93670654 C254.65345882 36.13402231 243.65717928 40.83544574 235.66519165 45.62185669 C232.57169299 47.47515149 229.48564561 49.34077348 226.3994751 51.20623779 C225.46307945 51.77191216 225.46307945 51.77191216 224.50776672 52.34901428 C218.53413595 55.96391937 212.61219876 59.65935905 206.70025635 63.37420654 C197.98988077 68.84386408 189.23217602 74.22828851 180.4385376 79.56292725 C173.31012163 83.88958807 166.21198624 88.26284224 159.1260376 92.65863037 C148.90094624 99.00073947 138.64980436 105.30041313 128.40045166 111.60321045 C122.66630119 115.12982043 116.93334203 118.65836593 111.20025635 122.18670654 C105.07036789 125.95898247 105.07036789 125.95898247 102.07281494 127.79608154 C99.92101925 129.12554587 97.7789127 130.47075794 95.644104 131.82733154 C79.11378133 142.29850628 64.23729432 144.9161049 45.01275635 140.68670654 C40.72727662 139.63555114 36.47374084 138.48627928 32.22369385 137.30047607 C29.83306085 136.63682199 27.43900204 135.98677944 25.04400635 135.33905029 C17.31530123 133.24645085 9.59137322 131.13966152 1.88775635 128.95623779 C-9.5356284 125.72017937 -20.97337299 122.64764962 -32.5055542 119.82220459 C-38.44334531 118.35662534 -44.31983322 116.76627134 -50.17474365 114.99920654 C-55.13184993 113.51219249 -60.09145823 112.07117712 -65.11224365 110.81170654 C-66.57017334 110.44432373 -66.57017334 110.44432373 -68.05755615 110.06951904 C-75.27494475 109.12644693 -79.91255705 111.4380639 -85.73724365 115.24920654 C-92.61907218 119.68670654 -92.61907218 119.68670654 -95.98724365 119.68670654 C-96.35784912 119.01542725 -96.72845459 118.34414795 -97.11029053 117.65252686 C-104.05623696 105.08265928 -111.03664304 92.53454034 -118.16915894 80.06939697 C-119.17273981 78.31520911 -120.17466758 76.56008451 -121.17645264 74.80487061 C-124.31549497 69.31455401 -127.47782973 63.84070993 -130.69818115 58.39764404 C-131.26641602 57.42875244 -131.83465088 56.45986084 -132.42010498 55.46160889 C-133.47725758 53.66151953 -134.5442504 51.86715927 -135.6227417 50.07977295 C-136.08462891 49.29006104 -136.54651611 48.50034912 -137.0223999 47.68670654 C-137.42853516 47.00608154 -137.83467041 46.32545654 -138.25311279 45.62420654 C-138.98724365 43.68670654 -138.98724365 43.68670654 -138.9418335 41.64691162 C-137.51472692 38.71641579 -135.51020323 37.8881652 -132.6786499 36.32342529 C-131.55208984 35.6914624 -130.42552979 35.05949951 -129.26483154 34.40838623 C-128.026517 33.73023852 -126.78815309 33.05218095 -125.54974365 32.37420654 C-124.27737854 31.66502682 -123.00582203 30.95439456 -121.73504639 30.24237061 C-119.11209192 28.77358535 -116.48618253 27.31029576 -113.8583374 25.85028076 C-108.04942573 22.61401613 -102.30200933 19.27240412 -96.54974365 15.93670654 C-94.41324034 14.70456206 -92.27652478 13.47278555 -90.1395874 12.24139404 C-86.12461903 9.92533284 -82.11766282 7.59624046 -78.1161499 5.25701904 C-60.20457193 -5.17136088 -60.20457193 -5.17136088 -50.98724365 -8.31329346 C-50.30275146 -8.55434814 -49.61825928 -8.79540283 -48.9130249 -9.04376221 C-32.23545106 -14.08424599 -15.50482776 -5.49499751 0 0 Z " fill="#FDFDFD" transform="translate(226.98724365234375,310.31329345703125)"/>
<path d="M0 0 C0.77389572 0.21890396 1.54779144 0.43780792 2.34513855 0.66334534 C12.83893045 3.70912791 23.05303062 7.57031417 33.30004883 11.34692383 C51.59409144 18.07011544 69.99494666 23.63130725 89.09960938 27.56640625 C99.89399892 29.98523919 108.40231252 34.79092972 114.83984375 43.93359375 C119.4761881 51.70795165 120.83927556 58.87491394 119.83984375 67.93359375 C118.49077764 72.10343446 116.78734475 76.01077031 114.83984375 79.93359375 C133.26339899 72.1893354 150.29455168 61.30365607 167.42041016 51.09936523 C176.84955735 45.49112264 186.35309022 40.02148936 195.89208984 34.60253906 C201.88230606 31.19864203 207.850008 27.76380902 213.78417969 24.26318359 C231.4499648 13.87861589 250.91905356 3.11335345 272.1015625 7.62890625 C278.62638487 9.57734756 283.84875575 12.30061072 288.83984375 16.93359375 C289.39414062 17.44664062 289.9484375 17.9596875 290.51953125 18.48828125 C296.87403816 25.09570386 299.05374658 33.04665562 299.27734375 42.05859375 C298.93848503 52.40507992 295.60274449 60.60575041 288.69921875 68.328125 C285.20276556 71.51410079 281.48546087 73.90133383 277.46484375 76.37109375 C276.22613525 77.14271851 276.22613525 77.14271851 274.96240234 77.92993164 C266.54099741 83.15979501 258.06152401 88.29610883 249.5859375 93.4375 C243.3560911 97.22091317 237.15872407 101.05550463 230.96533203 104.89819336 C223.93369372 109.2599634 216.88870387 113.59971658 209.83984375 117.93359375 C201.9991097 122.75505323 194.16364792 127.58470913 186.33984375 132.43359375 C169.14558336 143.08673965 151.9351883 153.71532435 134.62963867 164.18701172 C130.72752615 166.55032584 126.8335166 168.91462827 123.01171875 171.40625 C106.96385151 181.77534297 89.35976533 185.69696151 70.40917969 182.32275391 C62.13490555 180.51225795 53.98550379 178.24618614 45.83984375 175.93359375 C44.18148841 175.47605271 42.52269245 175.02010294 40.86328125 174.56640625 C38.00679827 173.78184154 35.15472518 172.98341778 32.3046875 172.17578125 C27.08577304 170.70829387 21.83803926 169.35437839 16.58984375 167.99609375 C9.05545112 166.04388771 1.5341428 164.05190898 -5.97265625 161.99609375 C-7.29801392 161.63427002 -7.29801392 161.63427002 -8.65014648 161.26513672 C-12.60446536 160.18465986 -16.55771902 159.10072263 -20.5078125 158.00488281 C-23.99450571 157.03776372 -27.48345064 156.07910337 -30.97265625 155.12109375 C-32.05200439 154.81888916 -33.13135254 154.51668457 -34.2434082 154.20532227 C-44.97174112 150.85457751 -44.97174112 150.85457751 -55.6640625 152.3671875 C-56.67339844 153.02847656 -57.68273437 153.68976563 -58.72265625 154.37109375 C-59.75519531 155.02980469 -60.78773438 155.68851563 -61.8515625 156.3671875 C-62.61339844 156.88410156 -63.37523437 157.40101563 -64.16015625 157.93359375 C-62.70104361 161.93509962 -60.72876871 165.3536138 -58.53515625 168.99609375 C-55.01331015 175.49570116 -53.85221829 180.63006818 -55.16015625 187.93359375 C-58.41131923 198.74685405 -68.40402657 202.97574797 -77.66015625 208.05859375 C-78.77519531 208.67863281 -79.89023438 209.29867187 -81.0390625 209.9375 C-98.05827794 219.37008067 -98.05827794 219.37008067 -107.16015625 217.93359375 C-115.82922891 215.02262384 -119.74896377 208.91791115 -123.94335938 201.17382812 C-125.33873611 198.6048119 -126.77116154 196.05832243 -128.20703125 193.51171875 C-130.5883746 189.2823896 -132.95617201 185.04583061 -135.31640625 180.8046875 C-139.21325317 173.81816909 -143.18095572 166.87333675 -147.16015625 159.93359375 C-152.85659086 149.99372715 -158.49299294 140.0220005 -164.07983398 130.02001953 C-167.94216014 123.10559155 -171.82336165 116.20224124 -175.72265625 109.30859375 C-176.24730469 108.38022705 -176.77195313 107.45186035 -177.3125 106.49536133 C-180.13055338 101.51140543 -182.95736898 96.53258887 -185.79296875 91.55859375 C-186.38779053 90.51268066 -186.9826123 89.46676758 -187.59545898 88.38916016 C-188.73556148 86.38472748 -189.87817151 84.38171829 -191.02368164 82.38037109 C-191.53664795 81.47754395 -192.04961426 80.5747168 -192.578125 79.64453125 C-193.02953857 78.85353027 -193.48095215 78.0625293 -193.94604492 77.24755859 C-197.3037639 70.84810947 -198.59402872 64.8018913 -196.5078125 57.71875 C-192.28362208 48.27324266 -182.97737434 43.84970558 -174.31616211 39.12719727 C-172.46105901 38.11476449 -170.61401735 37.08868058 -168.76757812 36.06054688 C-160.2978135 31.38789125 -153.99294153 28.76075112 -144.16015625 29.93359375 C-135.13886201 33.23369113 -130.50119698 41.91936472 -126.16015625 49.93359375 C-122.05118338 48.67598305 -118.50608639 47.15383183 -114.80078125 44.984375 C-113.78056885 44.39108398 -112.76035645 43.79779297 -111.70922852 43.18652344 C-110.62053467 42.54618164 -109.53184082 41.90583984 -108.41015625 41.24609375 C-107.25807151 40.57396047 -106.10563987 39.9024215 -104.95288086 39.23144531 C-102.55497719 37.83512226 -100.15858858 36.43624938 -97.76318359 35.03564453 C-91.01019464 31.09100031 -84.22696092 27.19836652 -77.44702148 23.30029297 C-72.55572283 20.48453054 -67.67529576 17.65554679 -62.83203125 14.7578125 C-43.4879274 3.22604374 -22.78467111 -6.54232037 0 0 Z M-54.16015625 27.93359375 C-55.04171387 28.44067871 -55.92327148 28.94776367 -56.83154297 29.47021484 C-61.81350062 32.34743533 -66.77965914 35.25074174 -71.73828125 38.16796875 C-78.41547751 42.09355051 -85.13098367 45.95108778 -91.84765625 49.80859375 C-100.37425771 54.71259817 -108.85059437 59.66862843 -117.16015625 64.93359375 C-116.59756925 68.39228078 -115.76889045 71.01178174 -114 74.03125 C-113.54447754 74.81790039 -113.08895508 75.60455078 -112.61962891 76.41503906 C-111.86625244 77.69266113 -111.86625244 77.69266113 -111.09765625 78.99609375 C-109.9996717 80.88783032 -108.90203359 82.779768 -107.8046875 84.671875 C-107.21510254 85.68330566 -106.62551758 86.69473633 -106.01806641 87.73681641 C-103.08601626 92.78179205 -100.19008694 97.84738231 -97.29592896 102.91415405 C-96.28505951 104.6837631 -95.27327022 106.4528442 -94.26147461 108.22192383 C-87.48329908 120.08233004 -80.80982909 132.00070546 -74.16015625 143.93359375 C-71.24061202 143.3277793 -69.09343053 142.43363314 -66.5859375 140.83203125 C-65.91755859 140.4246875 -65.24917969 140.01734375 -64.56054688 139.59765625 C-63.17919359 138.7448095 -61.80650826 137.87774539 -60.44335938 136.99609375 C-54.96488636 133.71005645 -51.32174344 133.54728347 -45.16015625 134.93359375 C-44.29495361 135.12018555 -43.42975098 135.30677734 -42.53833008 135.49902344 C-39.64895211 136.16041355 -36.78048194 136.88150494 -33.91015625 137.62109375 C-32.86311523 137.88656006 -31.81607422 138.15202637 -30.73730469 138.42553711 C-23.05449365 140.39380786 -15.42874634 142.53273181 -7.81542969 144.75268555 C-1.96042419 146.45050402 3.91784464 147.98792926 9.83984375 149.43359375 C17.51114533 151.30629384 25.09034788 153.41225703 32.67016602 155.62402344 C40.67750826 157.93713987 48.74827902 159.96152942 56.84667969 161.92944336 C61.59293976 163.08879542 66.21413929 164.34886167 70.83984375 165.93359375 C73.55661932 166.41022104 76.10113064 166.73507089 78.83984375 166.93359375 C79.77699219 167.0109375 80.71414063 167.08828125 81.6796875 167.16796875 C99.87000688 167.97742672 113.20646417 159.22187441 127.95996094 149.77246094 C132.32655889 146.98429412 136.74130833 144.27565256 141.15234375 141.55859375 C142.88444506 140.48490795 144.61620953 139.41067858 146.34765625 138.3359375 C152.399041 134.5838148 158.46257099 130.85152668 164.52734375 127.12109375 C165.61893799 126.44965332 166.71053223 125.77821289 167.83520508 125.08642578 C170.05985199 123.71819043 172.28454296 122.35002671 174.50927734 120.98193359 C179.95351942 117.63365687 185.3966468 114.28356913 190.83984375 110.93359375 C197.39786591 106.89750742 203.95615125 102.86185189 210.515625 98.828125 C212.72789701 97.46750064 214.9401368 96.10682389 217.15234375 94.74609375 C218.23555908 94.07980957 219.31877441 93.41352539 220.43481445 92.72705078 C227.98229248 88.08236103 235.51895463 83.42051298 243.04638672 78.7434082 C247.69352436 75.86150065 252.35795594 73.01138462 257.04296875 70.19140625 C258.08235596 69.56443848 259.12174316 68.9374707 260.19262695 68.29150391 C262.19372403 67.08625272 264.19732742 65.88514932 266.20385742 64.68896484 C276.10402259 59.10216948 276.10402259 59.10216948 282.3671875 50.015625 C283.92246666 43.16468459 283.60539157 36.70500738 280.0390625 30.5859375 C276.84698108 26.1877276 273.06473871 24.11658884 267.83984375 22.93359375 C244.13674503 19.99298376 220.63251698 38.29665532 201.53852844 49.74876404 C193.92713086 54.31212266 186.24436965 58.7391345 178.52734375 63.12109375 C169.97742748 67.97753345 161.47475095 72.90087597 153.02734375 77.93359375 C126.84001011 93.45672194 105.29266413 100.08981208 74.83984375 92.93359375 C73.58059082 92.64355469 73.58059082 92.64355469 72.29589844 92.34765625 C65.10933018 90.67191093 57.9723149 88.82494881 50.83984375 86.93359375 C50.17341858 86.75812012 49.50699341 86.58264648 48.82037354 86.40185547 C44.45998344 85.25325388 40.10507583 84.08632257 35.75540161 82.89776611 C34.32027545 82.5073186 32.88397655 82.12115447 31.44650269 81.73944092 C29.42269566 81.20017174 27.40448571 80.64341949 25.38671875 80.08203125 C24.21979492 79.76411621 23.05287109 79.44620117 21.85058594 79.11865234 C18.60121945 77.83966881 16.96965387 76.68229559 14.83984375 73.93359375 C14.41464801 70.4712856 14.20081742 68.09887705 15.90234375 64.99609375 C21.26879304 62.0532022 27.76296793 64.54852628 33.22851562 66.1184082 C34.27587891 66.42866943 35.32324219 66.73893066 36.40234375 67.05859375 C38.63261817 67.70119568 40.86309113 68.3431089 43.09375 68.984375 C44.21668457 69.31002441 45.33961914 69.63567383 46.49658203 69.97119141 C51.59910053 71.44001921 56.71756245 72.84802267 61.83984375 74.24609375 C62.71584229 74.4879541 63.59184082 74.72981445 64.49438477 74.97900391 C80.78823364 79.78580461 80.78823364 79.78580461 96.890625 76.20703125 C100.41244734 73.90620143 102.06146595 70.87953825 103.58984375 67.05859375 C104.19823835 61.88723968 104.58888041 58.40285796 102.21484375 53.74609375 C95.99090774 46.37564321 90.46994019 44.71908527 81.27978516 42.52001953 C53.96701084 35.95555246 27.32067519 26.90051892 1.10180664 16.84960938 C-18.98356872 9.19803781 -36.80339386 17.9472727 -54.16015625 27.93359375 Z " fill="#040404" transform="translate(205.16015625,286.06640625)"/>
<path d="M0 0 C15.77155423 13.59150614 26.34449741 31.99228915 28.1484375 52.89501953 C28.7175687 63.08856576 28.05105324 72.71392488 24.94140625 82.49609375 C24.44833984 84.07583984 24.44833984 84.07583984 23.9453125 85.6875 C17.17462586 105.15615257 3.32873999 121.14947363 -15.05859375 130.49609375 C-26.72561364 135.83509836 -37.42989869 137.68488207 -50.24609375 137.74609375 C-51.83647461 137.77703125 -51.83647461 137.77703125 -53.45898438 137.80859375 C-73.75994569 137.90756248 -91.28517202 129.06229439 -105.80859375 115.30859375 C-114.94060393 105.76391256 -121.03941066 95.07377261 -125.05859375 82.49609375 C-125.37699219 81.59117187 -125.69539063 80.68625 -126.0234375 79.75390625 C-131.46459685 62.05133252 -128.44508833 42.49023157 -120.4609375 26.109375 C-109.7468529 6.14357389 -93.42558171 -8.44281193 -71.68359375 -15.37890625 C-47.16015845 -22.42382039 -19.48043707 -15.94758642 0 0 Z " fill="#FCFCFC" transform="translate(387.05859375,153.50390625)"/>
<path d="M0 0 C4.50432951 3.85654968 7.53408341 8.49563458 10.75 13.4375 C11.96733411 15.29174139 13.18479326 17.14590069 14.40234375 19 C15.10343262 20.07121094 15.80452148 21.14242188 16.52685547 22.24609375 C18.90877439 25.87276695 21.3227129 29.47763625 23.7383728 33.08189392 C26.02851335 36.50171539 28.30964366 39.92749816 30.58972168 43.35403442 C31.73567597 45.07249897 32.88499799 46.78872264 34.03771973 48.50265503 C35.67688834 50.94200374 37.30263294 53.38981573 38.92578125 55.83984375 C39.67173302 56.94036072 39.67173302 56.94036072 40.43275452 58.06311035 C43.01427171 61.99008111 44.87359254 65.15704206 45 70 C43.22960551 72.74716387 41.93708156 74.53145922 39 76 C37.62451844 76.08308638 36.24514204 76.10736016 34.8671875 76.09765625 C34.06152344 76.09443359 33.25585938 76.09121094 32.42578125 76.08789062 C31.16314453 76.07532227 31.16314453 76.07532227 29.875 76.0625 C29.02550781 76.05798828 28.17601562 76.05347656 27.30078125 76.04882812 C25.20049091 76.03702874 23.1002367 76.01909306 21 76 C21.00999275 77.90347198 21.00999275 77.90347198 21.02018738 79.84539795 C21.08095404 91.79363494 21.12595132 103.74184064 21.15543652 115.69019699 C21.17110464 121.83324362 21.19236406 127.97616569 21.22631836 134.11914062 C21.25887057 140.04541501 21.27684438 145.97156945 21.28463173 151.89792633 C21.29018265 154.16100198 21.301022 156.42407094 21.31719017 158.68709564 C21.33890911 161.85241479 21.3419692 165.01723574 21.34057617 168.18261719 C21.351362 169.12201141 21.36214783 170.06140564 21.3732605 171.02926636 C21.34311163 177.34374224 21.34311163 177.34374224 19.66621399 180.55108643 C14.70559211 184.86476547 5.50991853 183.30632816 -0.75976562 183.35009766 C-2.49981045 183.36666642 -4.23978695 183.39396889 -5.97949219 183.43212891 C-8.49449786 183.48696881 -11.00791407 183.5087786 -13.5234375 183.5234375 C-14.29754974 183.54610687 -15.07166199 183.56877625 -15.86923218 183.59213257 C-19.54778488 183.57778481 -21.68355879 183.22375994 -24.70930481 181.08421326 C-27.93982307 176.73461349 -27.66914887 173.35403286 -27.56762695 168.0690918 C-27.56835709 167.07349747 -27.56908722 166.07790314 -27.56983948 165.05213928 C-27.56636105 161.76727477 -27.52748617 158.483835 -27.48828125 155.19921875 C-27.47895408 152.9195076 -27.47183751 150.63978641 -27.46684265 148.36006165 C-27.4477656 142.36420957 -27.39865767 136.36896453 -27.34332275 130.37335205 C-27.29214615 124.25354219 -27.26933194 118.13363411 -27.24414062 112.01367188 C-27.19054046 100.00884809 -27.10521827 88.00447455 -27 76 C-28.24136719 76.04640625 -29.48273438 76.0928125 -30.76171875 76.140625 C-32.40362171 76.17815421 -34.04555077 76.21455314 -35.6875 76.25 C-36.50412109 76.28351563 -37.32074219 76.31703125 -38.16210938 76.3515625 C-42.24016769 76.41760393 -44.45157179 76.32266152 -48.03936768 74.21182251 C-50 72 -50 72 -50.68261719 68.36083984 C-50.30214583 62.77506279 -47.17555964 58.71515045 -44.078125 54.2265625 C-43.15528717 52.84263809 -43.15528717 52.84263809 -42.21380615 51.43075562 C-40.24289425 48.48364379 -38.2471794 45.55435745 -36.25 42.625 C-34.95273623 40.69514595 -33.65714713 38.76416506 -32.36328125 36.83203125 C-29.81935315 33.03804314 -27.26326537 29.25272407 -24.69726562 25.47363281 C-22.26183514 21.88131711 -19.85459365 18.27283804 -17.47460938 14.64355469 C-16.65183502 13.39232315 -16.65183502 13.39232315 -15.81243896 12.11581421 C-14.78834242 10.55515129 -13.7687368 8.99152868 -12.75445557 7.42446899 C-12.30149109 6.735737 -11.84852661 6.047005 -11.38183594 5.33740234 C-10.99187439 4.73777679 -10.60191284 4.13815125 -10.20013428 3.52035522 C-7.2613137 -0.2026042 -4.46608458 -0.62525184 0 0 Z " fill="#030303" transform="translate(211,8)"/>
<path d="M0 0 C2.94830413 3.33712435 5.206205 6.8694382 7.3984375 10.734375 C8.03547607 11.85303955 8.67251465 12.9717041 9.32885742 14.12426758 C10.01104375 15.33276671 10.69308769 16.54134623 11.375 17.75 C12.08864599 19.00757735 12.80259912 20.26498046 13.5168457 21.5222168 C19.26818415 31.65776234 24.96130246 41.82614959 30.64453125 52 C37.99015794 65.14547434 45.41614102 78.24514813 52.89892578 91.31298828 C55.2606674 95.43801284 57.61563031 99.56689768 59.96972656 103.69628906 C62.00600082 107.26594403 64.05334895 110.82898299 66.10804749 114.38806152 C67.74701311 117.23311946 69.37223232 120.08602491 71 122.9375 C71.60577881 123.9795459 72.21155762 125.0215918 72.83569336 126.09521484 C73.65952515 127.54661865 73.65952515 127.54661865 74.5 129.02734375 C75.22703125 130.29179321 75.22703125 130.29179321 75.96875 131.58178711 C77.16962839 134.39776732 77.58032515 135.98019346 77 139 C72.29504625 143.58404196 66.1767328 146.52538898 60.5 149.75 C59.46746094 150.35199219 58.43492188 150.95398438 57.37109375 151.57421875 C55.87255859 152.42693359 55.87255859 152.42693359 54.34375 153.296875 C53.43818359 153.81604492 52.53261719 154.33521484 51.59960938 154.87011719 C48.74582128 156.11047512 47.06849027 156.52912708 44 156 C42.42993164 154.43994141 42.42993164 154.43994141 41.09765625 152.2265625 C40.59250488 151.4005957 40.08735352 150.57462891 39.56689453 149.72363281 C39.04981934 148.82483398 38.53274414 147.92603516 38 147 C37.21858643 145.65566895 37.21858643 145.65566895 36.42138672 144.28417969 C34.73310256 141.32878792 33.08176859 138.35509089 31.4375 135.375 C30.19440329 133.13910445 28.95090516 130.90343203 27.70703125 128.66796875 C27.08521973 127.54825684 26.4634082 126.42854492 25.82275391 125.27490234 C23.11010068 120.40113722 20.37086761 115.5426115 17.625 110.6875 C17.10019043 109.75905273 16.57538086 108.83060547 16.03466797 107.87402344 C11.39731363 99.68094594 6.71924476 91.51124587 2.04119873 83.34136963 C-3.3508014 73.92157926 -8.67670565 64.46615671 -13.96557617 54.98803711 C-18.34718867 47.14289439 -22.7887653 39.33352491 -27.27050781 31.54516602 C-27.73295898 30.74006592 -28.19541016 29.93496582 -28.671875 29.10546875 C-29.27660645 28.05588989 -29.27660645 28.05588989 -29.89355469 26.98510742 C-33.02298152 21.3705069 -33.02298152 21.3705069 -32.83984375 18.41796875 C-31.25786543 13.8633428 -27.00685853 12.32447569 -23 10 C-22.30438965 9.58959473 -21.6087793 9.17918945 -20.89208984 8.75634766 C-18.52043571 7.36293215 -16.13766243 5.99078617 -13.75 4.625 C-12.96955322 4.17165283 -12.18910645 3.71830566 -11.38500977 3.2512207 C-3.75175748 -1.02441605 -3.75175748 -1.02441605 0 0 Z " fill="#FCFCFC" transform="translate(57,332)"/>
<path d="M0 0 C1.7264122 -0.01268921 1.7264122 -0.01268921 3.48770142 -0.02563477 C5.36817421 -0.01652573 5.36817421 -0.01652573 7.28663635 -0.00723267 C8.62737963 -0.01130018 9.96811955 -0.01664307 11.30885315 -0.02316284 C14.94322538 -0.03682236 18.5773417 -0.03154321 22.21171832 -0.02202559 C26.01925509 -0.0144203 29.82677022 -0.02147716 33.63430786 -0.02618408 C40.02903671 -0.03163977 46.42366158 -0.02445564 52.81837463 -0.01016235 C60.20463256 0.00615688 67.59064196 0.00088029 74.97689384 -0.01564157 C81.32440356 -0.02927012 87.67183859 -0.03116921 94.01935822 -0.02332556 C97.80783253 -0.01865565 101.59619016 -0.01800521 105.38465691 -0.02793503 C108.94784763 -0.03662216 112.51071908 -0.03055127 116.07387543 -0.01325226 C118.00020411 -0.00741411 119.9265599 -0.01628858 121.85287476 -0.02563477 C132.50118578 0.05243953 132.50118578 0.05243953 137.23805237 3.38095093 C142.07013434 8.54322517 141.84510365 13.62328519 141.73805237 20.31845093 C141.76125549 21.76381226 141.76125549 21.76381226 141.78492737 23.2383728 C141.750922 29.45710431 141.11079189 33.43029891 137.23805237 38.38095093 C131.44915022 42.50917795 124.99474206 41.80974787 118.18360901 41.78500366 C116.8674913 41.79186691 115.5513736 41.79873016 114.19537354 41.80580139 C110.59612905 41.82370531 106.99712873 41.8225697 103.39785314 41.81685901 C100.38846162 41.81376309 97.37911672 41.81986409 94.36973184 41.82589775 C87.26793771 41.83993231 80.16626389 41.83839068 73.06446838 41.82699585 C65.74802462 41.81551573 58.43194747 41.82959069 51.11555201 41.85639232 C44.82405239 41.87857308 38.53266765 41.88518137 32.24113172 41.87931591 C28.48780405 41.87595076 24.73471134 41.87833169 20.9814167 41.89556694 C16.79467294 41.9139545 12.6086392 41.89982469 8.42189026 41.88265991 C6.5662294 41.89716187 6.5662294 41.89716187 4.67308044 41.91195679 C-2.01182216 41.85455559 -6.37600586 41.48255025 -11.76194763 37.38095093 C-15.61671987 32.20972273 -15.24462151 26.57387926 -15.19944763 20.38095093 C-15.2194281 19.4089978 -15.23940857 18.43704468 -15.25999451 17.43563843 C-15.25602481 11.60812563 -14.86204139 7.86652359 -10.76194763 3.38095093 C-7.05761812 0.73185278 -4.53112095 0.00513592 0 0 Z " fill="#FCFCFC" transform="translate(346.76194763183594,33.619049072265625)"/>
<path d="M0 0 C1.16784027 -0.00845947 2.33568054 -0.01691895 3.53890991 -0.02563477 C5.4551844 -0.01652573 5.4551844 -0.01652573 7.41017151 -0.00723267 C8.77209392 -0.01129875 10.13401304 -0.01664084 11.4959259 -0.02316284 C15.19227014 -0.03683932 18.88836316 -0.0315362 22.58471179 -0.02202559 C26.45411527 -0.01442912 30.32349728 -0.0214747 34.19290161 -0.02618408 C40.69195923 -0.03164233 47.19091458 -0.02444892 53.68995667 -0.01016235 C61.20061237 0.00615749 68.71102367 0.00088088 76.22167343 -0.01564157 C82.67190625 -0.02926269 89.12206556 -0.03117285 95.57230812 -0.02332556 C99.42392199 -0.01865158 103.27542105 -0.01801643 107.12702751 -0.02793503 C110.74929597 -0.03661133 114.37124995 -0.03057096 117.9934845 -0.01325226 C119.95460581 -0.00740306 121.91575376 -0.01629782 123.87686157 -0.02563477 C125.04752167 -0.01717529 126.21818176 -0.00871582 127.42431641 0 C128.94716074 0.00169662 128.94716074 0.00169662 130.50076962 0.00342751 C134.97017439 0.61149154 138.40726154 2.93888475 141.27565002 6.38095093 C142.79658436 10.94375394 142.50104485 15.47639661 142.52565002 20.25595093 C142.55658752 21.74675171 142.55658752 21.74675171 142.58815002 23.26766968 C142.62418169 29.99658244 142.01961436 33.52653366 137.26164246 38.47602844 C133.0558017 41.15915668 129.59630553 40.94988745 124.70289612 40.91439819 C123.74447815 40.92301376 122.78606018 40.93162933 121.79859924 40.94050598 C118.63181997 40.96319613 115.46592405 40.95641793 112.29908752 40.94735718 C110.09055825 40.95259373 107.88203121 40.95887033 105.67350769 40.96614075 C101.04159537 40.97655241 96.40999005 40.97197581 91.77809143 40.95736694 C85.86342488 40.94023327 79.94973472 40.96360402 74.03517723 40.99885654 C69.47098947 41.02090592 64.90703223 41.01936986 60.34280777 41.01109123 C58.16367654 41.01027478 55.98452786 41.01707922 53.80544662 41.03186226 C32.84978357 41.15216792 32.84978357 41.15216792 23.27565002 35.38095093 C11.23015768 30.58749197 -0.91803552 29.9110598 -13.72434998 29.38095093 C-13.84133256 26.1729286 -13.91185604 22.96546068 -13.97434998 19.75595093 C-14.0078656 18.85231812 -14.04138123 17.9486853 -14.07591248 17.01766968 C-14.15983002 11.26931821 -13.67952455 7.87546749 -9.72434998 3.38095093 C-6.49085272 0.41419863 -4.34976884 0.00484792 0 0 Z " fill="#FEFEFE" transform="translate(345.72434997558594,90.61904907226563)"/>
<path d="M0 0 C3.42603065 1.26614176 4.8712844 1.97986061 6.875 5.0625 C7.19893014 8.09281417 7.10842986 11.02791179 6.875 14.0625 C7.844375 14.10375 8.81375 14.145 9.8125 14.1875 C17.72459057 15.35433356 23.49759394 21.28484464 28.46484375 27.1328125 C31.6323636 31.46731335 32.45738185 34.62693603 31.875 40.0625 C30.375 42.5 30.375 42.5 27.875 44.0625 C25.06986988 44.67181105 22.67368792 44.7274775 19.875 44.0625 C17.26848427 41.6007907 15.8578042 39.03285206 14.0625 35.9375 C11.39439157 32.43084321 9.1059524 30.94821841 4.875 30.0625 C-1.0881125 29.46024051 -6.25215699 29.19065929 -11.75 31.75 C-14.23236642 34.16704099 -15.84819545 35.83293554 -17.125 39.0625 C-17.05771543 42.89772026 -16.87357014 45.16589802 -14.38671875 48.14453125 C-9.38420864 52.38672894 -2.54705889 53.90069014 3.8125 55 C14.94021933 57.05217081 24.74431173 61.8926428 31.3125 71.3125 C34.97462838 77.75784594 34.41482271 84.8723614 33.875 92.0625 C31.66773718 100.01584376 25.7254849 104.88261921 18.86328125 108.9921875 C14.75379985 111.20436413 11.53408426 112.0625 6.875 112.0625 C6.936875 113.114375 6.99875 114.16625 7.0625 115.25 C6.8659572 119.24637024 6.26929484 120.93149906 3.875 124.0625 C1.06584526 125.46707737 -1.01310534 125.31145157 -4.125 125.0625 C-7.2609157 123.28265595 -7.96602736 122.53941793 -9.125 119.0625 C-9.16454234 116.72950175 -9.16901732 114.39541811 -9.125 112.0625 C-11.043125 111.7840625 -11.043125 111.7840625 -13 111.5 C-21.54773886 109.57507613 -28.15705247 104.05125313 -33.0078125 96.8984375 C-36.10893415 91.80218864 -36.68678847 87.96127897 -36.125 82.0625 C-34.5 79.5625 -34.5 79.5625 -32.125 78.0625 C-28.46386361 77.43932785 -26.72817655 77.71782769 -23.5 79.5625 C-20.91275555 82.28591521 -19.7108238 84.79674416 -18.15234375 88.1640625 C-15.74434401 92.61382628 -11.71580519 94.47156017 -7.125 96.0625 C0.64173325 97.10290352 7.94176785 95.71864888 14.875 92.0625 C17.57495213 88.0125718 17.62938721 84.81513945 16.875 80.0625 C13.11594891 73.79741485 5.527231 72.77414146 -1.125 71.0625 C-3.18703993 70.58135735 -5.24952035 70.10209736 -7.3125 69.625 C-18.52934042 66.88013826 -26.0588826 62.02826429 -32.125 52.0625 C-34.35157795 45.38276614 -34.36043843 36.72166114 -32.1015625 30.03125 C-27.93514852 22.57313879 -21.28231547 16.74294489 -13.125 14.0625 C-11.805 14.0625 -10.485 14.0625 -9.125 14.0625 C-9.19460938 13.47082031 -9.26421875 12.87914062 -9.3359375 12.26953125 C-9.76199198 6.05116464 -9.76199198 6.05116464 -8 3.31640625 C-5.39206088 0.91900388 -3.52719872 0.07054397 0 0 Z " fill="#040404" transform="translate(338.125,150.9375)"/>
<path d="M0 0 C9.52744095 -0.09284025 19.05472523 -0.16383586 28.58252048 -0.20724869 C33.00708095 -0.22808885 37.43133103 -0.25634072 41.85571289 -0.30175781 C46.12863639 -0.34534372 50.40126208 -0.36916396 54.67439079 -0.37950897 C56.30143863 -0.38687756 57.92847088 -0.40126678 59.55539131 -0.42292023 C61.8413986 -0.45212497 64.12618853 -0.45594908 66.41235352 -0.45410156 C67.71141129 -0.46298401 69.01046906 -0.47186646 70.34889221 -0.48101807 C75.53326354 0.20200101 79.27673228 2.1639622 82.91015625 6.03515625 C84.65166546 10.77281035 84.47201794 15.43239835 84.4375 20.4375 C84.45748047 21.46166016 84.47746094 22.48582031 84.49804688 23.54101562 C84.49419492 29.49228248 84.22880056 33.43867837 80 38 C76.42360324 40.52897666 74.02466482 41.37244281 69.65893555 41.34057617 C68.09788338 41.34023628 68.09788338 41.34023628 66.5052948 41.33988953 C65.3936647 41.32440567 64.28203461 41.30892181 63.13671875 41.29296875 C61.41603935 41.28660149 61.41603935 41.28660149 59.66059875 41.28010559 C56.00265879 41.26333484 52.345273 41.22568435 48.6875 41.1875 C46.20508609 41.17245114 43.72266353 41.15876309 41.24023438 41.14648438 C35.15996769 41.11343649 29.08002344 41.0632524 23 41 C22.67749268 40.13914795 22.35498535 39.2782959 22.02270508 38.39135742 C17.11782559 25.44243916 11.48881908 13.06820192 1.265625 3.3515625 C0 2 0 2 0 0 Z " fill="#FAFAFA" transform="translate(404,147)"/>
<path d="M0 0 C0.66 0 1.32 0 2 0 C3.49692345 2.01416088 4.86350881 4.02102201 6.2109375 6.1328125 C6.8250499 7.07699539 6.8250499 7.07699539 7.4515686 8.04025269 C8.76598876 10.06430651 10.07061744 12.09446632 11.375 14.125 C12.24674685 15.47177446 13.1191351 16.818134 13.9921875 18.1640625 C15.61001535 20.65903194 17.22342009 23.15676124 18.83349609 25.65673828 C20.28819552 27.90157195 21.76303058 30.1075251 23.27978516 32.30810547 C25 35 25 35 25 37 C23.86111328 37.09087891 23.86111328 37.09087891 22.69921875 37.18359375 C21.70535156 37.26738281 20.71148437 37.35117188 19.6875 37.4375 C18.70136719 37.51871094 17.71523437 37.59992188 16.69921875 37.68359375 C13.90624401 37.91812559 13.90624401 37.91812559 11 39 C10.08464268 41.74607195 9.86616096 43.40159128 9.84178162 46.233078 C9.82709839 47.52662956 9.82709839 47.52662956 9.81211853 48.84631348 C9.80348534 50.26079773 9.80348534 50.26079773 9.79467773 51.70385742 C9.78477814 52.6991597 9.77487854 53.69446198 9.76467896 54.71992493 C9.73305055 58.01508187 9.70830114 61.31025324 9.68359375 64.60546875 C9.66302539 66.88805011 9.64202895 69.17062765 9.62062073 71.45320129 C9.56538793 77.46520904 9.51598393 83.47725123 9.46777344 89.48931885 C9.41756727 95.62246776 9.36187658 101.75556656 9.30664062 107.88867188 C9.19904425 119.92573846 9.09760252 131.96284852 9 144 C3.72 144 -1.56 144 -7 144 C-7.01030746 142.72879807 -7.02061493 141.45759613 -7.03123474 140.14787292 C-7.12887105 128.1845323 -7.23159583 116.22124483 -7.33933926 104.25799084 C-7.39457038 98.10715226 -7.44799076 91.95630893 -7.49731445 85.80541992 C-7.54495511 79.87263593 -7.59729792 73.93991057 -7.65294075 68.00719643 C-7.67336564 65.74053718 -7.69207849 63.47386186 -7.70907402 61.2071743 C-7.73311495 58.03934272 -7.76317012 54.87162228 -7.79467773 51.70385742 C-7.8004332 50.76086792 -7.80618866 49.81787842 -7.81211853 48.84631348 C-7.82190735 47.98394577 -7.83169617 47.12157806 -7.84178162 46.233078 C-7.84823417 45.48366031 -7.85468672 44.73424261 -7.8613348 43.96211529 C-7.93348389 41.78527639 -7.93348389 41.78527639 -9 39 C-13.62 38.34 -18.24 37.68 -23 37 C-21.2416152 32.60403801 -19.20976491 29.10070663 -16.5625 25.25 C-13.63830914 20.94789826 -10.74819745 16.63328509 -7.96484375 12.23828125 C-7.46976318 11.4587207 -6.97468262 10.67916016 -6.46459961 9.87597656 C-5.49777429 8.34878257 -4.53622821 6.81823201 -3.58032227 5.28417969 C-2.43893131 3.48862027 -1.22596517 1.7389124 0 0 Z " fill="#FDFDFD" transform="translate(207,31)"/>
<path d="M0 0 C6.72594266 -0.1015993 13.45168668 -0.17154911 20.17822266 -0.21972656 C22.46540726 -0.23981517 24.75254068 -0.26709128 27.03955078 -0.30175781 C30.33118334 -0.35039558 33.62213557 -0.37299679 36.9140625 -0.390625 C37.93303619 -0.41127014 38.95200989 -0.43191528 40.00186157 -0.45318604 C46.01519211 -0.45507744 49.410053 0.01270323 54 4 C58.11180921 8.58891788 57.44396296 14.11012973 57.375 19.9375 C57.38660156 20.91396484 57.39820313 21.89042969 57.41015625 22.89648438 C57.3882617 28.27889438 57.26115995 32.49354479 54 37 C48.46015269 42.02457947 43.03394084 41.52261184 35.8203125 41.390625 C34.6524118 41.38496521 33.48451111 41.37930542 32.28121948 41.37347412 C28.56205746 41.35113756 24.84386938 41.30094342 21.125 41.25 C18.59897228 41.22993161 16.07292941 41.21168144 13.546875 41.1953125 C7.36425272 41.15128153 1.18219596 41.08439531 -5 41 C-4.86255875 40.39164307 -4.72511749 39.78328613 -4.58351135 39.15649414 C-4.31316322 37.95174438 -4.31316322 37.95174438 -4.03735352 36.72265625 C-3.76931664 35.53168335 -3.76931664 35.53168335 -3.49586487 34.31665039 C-1.64235973 25.65718757 -0.9141481 16.82578923 -0.44140625 8 C-0.39794067 7.22527344 -0.3544751 6.45054687 -0.30969238 5.65234375 C-0.20429915 3.76834889 -0.10183728 1.88419042 0 0 Z " fill="#FCFCFC" transform="translate(431,204)"/>
<path d="M0 0 C4.29085983 0.87568568 6.18527073 2.33673797 9.0625 5.625 C9.86317607 8.68819255 9.58004166 10.36448754 9.0625 13.625 C6.48999516 16.96925629 4.43501107 18.44199852 0.25 19 C-3.9613265 18.50454982 -5.24295019 16.78147263 -7.9375 13.625 C-8.2675 13.295 -8.5975 12.965 -8.9375 12.625 C-8.77469226 8.39199878 -8.30262992 6.11531732 -5.75 2.6875 C-2.9375 0.625 -2.9375 0.625 0 0 Z " fill="#090909" transform="translate(49.9375,349.375)"/>
</svg>
