<?xml version="1.0" encoding="UTF-8"?>
<svg version="1.1" xmlns="http://www.w3.org/2000/svg" width="512" height="512">
<path d="M0 0 C0.96020674 -0.00384115 1.92041347 -0.00768229 2.90971738 -0.01163983 C4.49548669 -0.01034011 4.49548669 -0.01034011 6.11329174 -0.00901413 C7.23459852 -0.01198525 8.3559053 -0.01495637 9.51119107 -0.01801753 C13.28824864 -0.02672553 17.06527459 -0.02821455 20.84234142 -0.02970505 C23.54237589 -0.03379283 26.242407 -0.03933539 28.94243908 -0.04475021 C36.29160181 -0.05833681 43.64075909 -0.06435873 50.9899323 -0.06876087 C55.57792003 -0.07152268 60.16590564 -0.07575991 64.75389194 -0.08026505 C77.45426107 -0.09245801 90.1546285 -0.10275735 102.85500336 -0.10614014 C104.0744709 -0.10646949 104.0744709 -0.10646949 105.31857414 -0.10680549 C106.13350778 -0.10702377 106.94844142 -0.10724204 107.78807002 -0.10746694 C109.43946127 -0.1079104 111.09085252 -0.10835697 112.74224377 -0.10880661 C113.56139246 -0.10902804 114.38054116 -0.10924947 115.22451254 -0.10947761 C128.49930586 -0.11342609 141.7740443 -0.13088151 155.04881642 -0.15416613 C168.67463209 -0.17787379 182.30042021 -0.19034172 195.92625684 -0.19150805 C203.57796033 -0.19242513 211.22959232 -0.19818568 218.88127613 -0.21632767 C225.39656484 -0.23172074 231.91175995 -0.23685383 238.42706338 -0.22858956 C241.75140315 -0.22468019 245.07540095 -0.22725504 248.39974308 -0.23964691 C252.00380429 -0.25229545 255.6073789 -0.24652781 259.21143627 -0.23606491 C260.26192365 -0.24412132 261.31241102 -0.25217772 262.39473134 -0.26047826 C267.79527553 -0.22371416 271.71765791 0.03172863 276.35283947 3.13142776 C280.38678263 7.60147288 281.47861475 10.00464351 281.46636486 15.95808792 C281.46628933 17.17920273 281.4662138 18.40031754 281.46613598 19.65843582 C281.46102899 20.99578771 281.45581299 22.33313919 281.45049572 23.67049026 C281.44863087 25.03526635 281.44720728 26.40004311 281.446208 27.7648201 C281.4423881 31.3585787 281.4325623 34.95229694 281.42150402 38.54603958 C281.41127858 42.21251759 281.40670795 45.87900211 281.40166759 49.54549026 C281.39093957 56.74082117 281.37386946 63.93611882 281.35283947 71.13142776 C282.14939953 71.12032471 282.94595959 71.10922165 283.76665783 71.09778214 C291.29877725 70.99731049 298.83056863 70.92132718 306.36318493 70.87236691 C310.23519163 70.84634886 314.10664147 70.81109624 317.97832775 70.7542305 C321.71960397 70.69962836 325.46034694 70.6699487 329.20199108 70.65704155 C330.62450072 70.64785177 332.04698342 70.6299063 333.46926403 70.60277748 C341.5838855 70.45425034 348.17510606 70.37420217 354.35283947 76.13142776 C359.66623766 81.91317869 363.1913611 88.94429729 366.89928722 95.8122139 C368.29571189 98.39837192 369.70605925 100.97684657 371.11577892 103.55577469 C371.83338781 104.86863209 372.55034821 106.18184417 373.26665783 107.49541092 C376.44711069 113.32303136 379.6997772 119.10816965 382.97783947 124.88142776 C383.49281994 125.79263382 384.00780041 126.70383987 384.53838634 127.64265823 C387.38126156 132.67079463 390.24651301 137.68516539 393.13018322 142.69002151 C394.39208297 144.89955357 395.65380574 147.10918671 396.91533947 149.31892776 C397.49944592 150.32214066 398.08355236 151.32535355 398.685359 152.35896683 C406.45648598 166.03052005 408.50231075 178.42225965 408.52080822 193.92439651 C408.52413662 194.91466339 408.52746502 195.90493027 408.53089428 196.92520523 C408.53592095 199.00167252 408.53830394 201.07814776 408.5381422 203.15462112 C408.54034081 206.3208525 408.55857487 209.48674163 408.57744884 212.65291214 C408.58038131 214.68090575 408.58236709 216.708901 408.58330822 218.73689651 C408.59049374 219.67559082 408.59767925 220.61428513 408.60508251 221.58142471 C408.56396299 233.4516422 408.56396299 233.4516422 404.91533947 237.87361526 C400.96280485 240.73920286 398.85273614 242.26142708 394.00127697 242.22908401 C393.15049572 242.22586136 392.29971447 242.2226387 391.42315197 242.21931839 C390.53369884 242.21093948 389.64424572 242.20256058 388.72783947 242.19392776 C387.83065197 242.18941605 386.93346447 242.18490433 386.00908947 242.18025589 C383.79027299 242.16845367 381.57158929 242.15198932 379.35283947 242.13142776 C379.23384289 242.72818314 379.11484631 243.32493851 378.99224377 243.93977737 C376.48486502 255.9432899 370.26583101 265.06443627 360.04033947 271.94392776 C348.66929769 278.68346268 336.37664177 280.10624164 323.49737072 277.28767776 C311.30086609 273.35074715 302.66493411 266.2654939 296.35283947 255.13142776 C292.35283947 246.76347524 292.35283947 246.76347524 292.35283947 242.13142776 C244.83283947 242.13142776 197.31283947 242.13142776 148.35283947 242.13142776 C147.69283947 245.10142776 147.03283947 248.07142776 146.35283947 251.13142776 C141.25551068 262.05854609 133.43117559 270.51631934 122.37627697 275.46345901 C110.88064178 279.49976765 98.53508179 279.87803775 87.09893322 275.45564651 C75.61603022 269.91837181 66.76559948 261.22093142 62.35283947 249.13142776 C61.997099 246.80140539 61.66148635 244.46815468 61.35283947 242.13142776 C60.44717236 242.14031021 59.54150524 242.14919266 58.60839367 242.15834427 C50.07432822 242.2384845 41.5403891 242.29938929 33.0060339 242.33867645 C28.61838005 242.35955348 24.23103706 242.38787286 19.84356213 242.43318558 C15.60955531 242.47663977 11.37584753 242.500564 7.14163494 242.51093674 C5.52606276 242.51832893 3.91050698 242.53276426 2.29506207 242.55434799 C0.03238564 242.58337759 -2.22905448 242.58738415 -4.49188709 242.58552933 C-5.7798418 242.59441177 -7.06779652 242.60329422 -8.39478016 242.61244583 C-12.21811133 242.04698572 -13.36088748 241.18742282 -15.64716053 238.13142776 C-16.66497581 235.07798192 -16.76813294 233.02858984 -16.76068592 229.83382034 C-16.76057262 228.21247932 -16.76057262 228.21247932 -16.76045704 226.55838394 C-16.75529575 225.39268372 -16.75013447 224.22698349 -16.74481678 223.02595901 C-16.74340183 221.83161743 -16.74198689 220.63727585 -16.74052906 219.4067421 C-16.73492403 215.58577869 -16.72237064 211.76487351 -16.70966053 207.94392776 C-16.70464618 205.35603799 -16.70008316 202.76814729 -16.69598866 200.18025589 C-16.68495296 193.83062659 -16.66820989 187.48103134 -16.64716053 181.13142776 C-17.43785435 181.14031021 -18.22854816 181.14919266 -19.0432024 181.15834427 C-26.50269551 181.23856503 -33.96197884 181.29942978 -41.42179108 181.33867645 C-45.256786 181.35953215 -49.09142384 181.38781192 -52.92621326 181.43318558 C-56.62855306 181.47671684 -60.33054987 181.50058006 -64.03312588 181.51093674 C-65.44412922 181.51831518 -66.85511425 181.5327239 -68.26597118 181.55434799 C-70.24530501 181.58347255 -72.22498555 181.58506243 -74.20453358 181.58552933 C-75.89330868 181.598853 -75.89330868 181.598853 -77.61620045 181.61244583 C-81.33232758 181.02269069 -82.99496699 179.75091091 -85.64716053 177.13142776 C-86.27606678 174.91267776 -86.27606678 174.91267776 -86.20966053 172.63142776 C-86.21094959 171.87861526 -86.21223866 171.12580276 -86.21356678 170.35017776 C-85.38165956 167.09139638 -84.39748659 166.12537442 -81.64716053 164.13142776 C-78.19418303 163.51371644 -74.76655214 163.57507102 -71.2665453 163.5979805 C-70.21085346 163.58936493 -69.15516163 163.58074936 -68.06747913 163.57187271 C-64.57425965 163.5491513 -61.08183841 163.55596353 -57.58856678 163.56502151 C-55.16245249 163.55978852 -52.73634024 163.55351324 -50.31023121 163.54623795 C-45.22346905 163.53582215 -40.13698642 163.54041215 -35.0502367 163.55501175 C-28.52852275 163.57219663 -22.00769003 163.54871293 -15.48607445 163.51352215 C-10.47520059 163.49157089 -5.4645383 163.4929843 -0.4536314 163.50128746 C1.95095377 163.5021083 4.35555428 163.49521971 6.76009464 163.48051643 C10.12155861 163.46311453 13.48143009 163.477579 16.8428297 163.50032425 C17.83779964 163.48863205 18.83276958 163.47693985 19.85789013 163.46489334 C24.48864712 163.52870858 26.66583065 163.62156336 30.47455883 166.44821548 C32.93855427 169.96814891 33.04185838 171.92075666 32.35283947 176.13142776 C30.48575442 178.49640216 29.03222516 179.79173492 26.35283947 181.13142776 C24.39347907 181.21652982 22.43121153 181.23860433 20.47002697 181.22908401 C19.4192799 181.22658646 18.36853283 181.2240889 17.28594494 181.22151566 C15.94677013 181.21241165 14.60759533 181.20330765 13.22783947 181.19392776 C8.97908947 181.17330276 4.73033947 181.15267776 0.35283947 181.13142776 C0.35283947 195.65142776 0.35283947 210.17142776 0.35283947 225.13142776 C20.48283947 225.13142776 40.61283947 225.13142776 61.35283947 225.13142776 C62.01283947 222.16142776 62.67283947 219.19142776 63.35283947 216.13142776 C69.61395808 203.2787885 78.55990761 196.64750313 91.35283947 191.13142776 C103.36488311 187.59340635 116.94368853 189.58855312 127.73174572 195.41658401 C137.40282955 201.29123561 143.60547429 209.5165736 147.35283947 220.13142776 C147.68283947 221.78142776 148.01283947 223.43142776 148.35283947 225.13142776 C186.63283947 225.13142776 224.91283947 225.13142776 264.35283947 225.13142776 C264.35283947 156.49142776 264.35283947 87.85142776 264.35283947 17.13142776 C177.23283947 17.13142776 90.11283947 17.13142776 0.35283947 17.13142776 C0.35283947 25.05142776 0.35283947 32.97142776 0.35283947 41.13142776 C3.90420666 41.08502151 7.45557384 41.03861526 11.11455822 40.99080276 C14.55651959 40.95960217 17.99846518 40.93531713 21.44048595 40.9117012 C23.83150828 40.89159359 26.22248148 40.86430347 28.61333752 40.82966995 C32.05136778 40.78111625 35.48874751 40.75845002 38.92705822 40.74080276 C39.99494076 40.72015762 41.0628233 40.69951248 42.16306591 40.67824173 C49.58518253 40.67600081 49.58518253 40.67600081 53.50835705 43.00349808 C55.68010155 45.50898121 56.27212109 46.82197424 56.35283947 50.13142776 C55.62672414 52.90386813 54.80745531 54.62697495 52.89091015 56.75362015 C48.88458918 58.92847666 44.91942354 58.56519158 40.43120861 58.55134964 C39.42428463 58.55981918 38.41736065 58.56828873 37.37992382 58.57701492 C34.04915288 58.6004271 30.71884274 58.60140607 27.38799572 58.60017776 C25.07398321 58.60727665 22.75997247 58.61497524 20.44596386 58.62324905 C15.59464151 58.6367035 10.74348191 58.63825819 5.89214611 58.63240433 C-0.32688092 58.62650672 -6.54512769 58.65709875 -12.76400375 58.69752121 C-17.54324526 58.72336117 -22.32229796 58.72627897 -27.10159969 58.72262955 C-29.39455152 58.72432418 -31.68751175 58.73399953 -33.98039532 58.75177383 C-37.18617435 58.77389 -40.39036191 58.764298 -43.59613514 58.74666214 C-44.54435139 58.75992538 -45.49256763 58.77318863 -46.46951771 58.78685379 C-50.99858416 58.72891331 -53.01871592 58.60334248 -56.73628712 55.81172562 C-58.64716053 53.13142776 -58.64716053 53.13142776 -59.27216053 49.63142776 C-58.46914458 45.13453842 -57.24477048 43.90619103 -53.64716053 41.13142776 C-50.77001647 40.46864216 -48.00480775 40.54632414 -45.06512928 40.64314651 C-43.84386089 40.65375862 -43.84386089 40.65375862 -42.59792042 40.66458511 C-40.0092141 40.69247178 -37.4227078 40.75519461 -34.83466053 40.81892776 C-33.07492625 40.84401826 -31.3151579 40.86683013 -29.55536366 40.88728714 C-25.25178757 40.94227905 -20.94984643 41.02850785 -16.64716053 41.13142776 C-16.65763416 40.35017532 -16.6681078 39.56892288 -16.67889881 38.76399612 C-16.72066261 35.19900651 -16.74655151 31.63406854 -16.77216053 28.06892776 C-16.78891834 26.83980667 -16.80567616 25.61068558 -16.82294178 24.34431839 C-16.9010362 9.85780268 -16.9010362 9.85780268 -13.02606678 5.17049026 C-12.12694569 4.47052933 -12.12694569 4.47052933 -11.20966053 3.75642776 C-10.31440662 3.0332637 -10.31440662 3.0332637 -9.40106678 2.29549026 C-6.29253363 0.23236581 -3.62095268 0.00543146 0 0 Z M281.35283947 88.13142776 C281.35283947 133.34142776 281.35283947 178.55142776 281.35283947 225.13142776 C284.98283947 225.13142776 288.61283947 225.13142776 292.35283947 225.13142776 C292.78983166 223.98867386 292.78983166 223.98867386 293.23565197 222.82283401 C298.30645802 210.05014329 304.31085922 200.21806969 317.10283947 194.25642776 C327.40830239 189.81035662 340.78878358 189.09204303 351.47783947 192.75642776 C364.0422881 198.31901648 371.97589395 206.5292117 377.35283947 219.13142776 C378.07055229 221.11368223 378.76664157 223.10638049 379.35283947 225.13142776 C383.31283947 225.13142776 387.27283947 225.13142776 391.35283947 225.13142776 C391.40262038 219.33310036 391.43873808 213.53489992 391.46270275 207.73640823 C391.47270307 205.76763616 391.4863077 203.79887872 391.50371838 201.83015823 C391.52823117 198.98523196 391.53938253 196.14050362 391.54815197 193.29549026 C391.55847454 192.42840439 391.56879711 191.56131851 391.57943249 190.66795731 C391.58101103 181.88902791 390.23649364 174.03966196 386.16533947 166.19392776 C385.8271217 165.53900345 385.48890392 164.88407913 385.14043713 164.20930862 C379.75149249 153.90077904 374.00643436 143.7767268 368.31524181 133.63289261 C366.41031813 130.23671879 364.51564847 126.83489028 362.62237072 123.43220901 C361.42851424 121.29019613 360.23450994 119.14826562 359.04033947 117.00642776 C358.51488537 116.06162552 357.98943127 115.11682327 357.44805431 114.14339066 C352.55152715 105.38535617 347.44487374 96.78788603 342.35283947 88.13142776 C322.22283947 88.13142776 302.09283947 88.13142776 281.35283947 88.13142776 Z M89.35283947 211.13142776 C88.30096447 211.85330276 87.24908947 212.57517776 86.16533947 213.31892776 C80.68438447 218.79988276 77.31716414 225.39912788 77.04033947 233.19392776 C77.18091353 240.96383936 79.70765824 247.82933768 84.97783947 253.56892776 C91.64196117 259.56786911 98.84833473 261.85301998 107.75908947 261.44002151 C116.1593846 260.44058881 121.68206339 256.31569932 127.35283947 250.13142776 C132.05747847 243.79825989 132.95217695 236.2608226 132.05205822 228.55720901 C130.18046489 220.44697125 124.91243974 214.42588755 118.25518322 209.61580276 C109.37889958 204.9039064 97.53454394 205.30651405 89.35283947 211.13142776 Z M315.35283947 216.13142776 C314.30096447 217.24517776 314.30096447 217.24517776 313.22783947 218.38142776 C308.79890469 224.87719878 307.49578674 231.69421149 308.71612072 239.43611526 C310.61391124 247.72442487 315.56845499 254.09819055 322.74346447 258.64705276 C329.83250039 261.89428857 337.56681349 262.57000205 345.05596447 260.31892776 C352.27329631 257.13090388 357.94541457 251.90574853 361.51299572 244.83064651 C364.60588582 236.50142154 363.76578363 229.786711 360.54033947 221.67830276 C357.28282758 214.691797 352.20135343 211.35048582 345.35283947 208.13142776 C334.23750707 204.42631696 322.89541252 207.2958422 315.35283947 216.13142776 Z " fill="#000000" transform="translate(103.64716053009033,119.86857223510742)"/>
<path d="M0 0 C2.9699592 0.67265871 4.11017234 2.14587691 6.03515625 4.4609375 C6.51617432 6.84014893 6.51617432 6.84014893 6.48925781 9.50488281 C6.48895569 10.50561829 6.48865356 11.50635376 6.48834229 12.53741455 C6.46769714 13.61045837 6.447052 14.6835022 6.42578125 15.7890625 C6.42012146 16.89320496 6.41446167 17.99734741 6.40863037 19.13494873 C6.38624393 22.66071976 6.33604121 26.18547374 6.28515625 29.7109375 C6.26509428 32.10154782 6.24684299 34.49217408 6.23046875 36.8828125 C6.18637168 42.74253437 6.11943623 48.60166328 6.03515625 54.4609375 C6.5932259 54.45632854 7.15129555 54.45171957 7.7262764 54.44697094 C21.30523065 54.3365501 34.88410625 54.25412879 48.46341324 54.20187664 C55.03030348 54.17575981 61.5968702 54.14032251 68.16357422 54.08374023 C74.49835143 54.02949666 80.83281705 53.99953269 87.16780853 53.98655128 C89.58721575 53.97729778 92.00660552 53.95922821 94.42588043 53.93228722 C97.80936312 53.89610023 101.19155091 53.89098803 104.57519531 53.89331055 C105.58004471 53.87533417 106.5848941 53.85735779 107.62019348 53.83883667 C114.39670529 53.88931906 114.39670529 53.88931906 117.65765381 56.80891418 C119.35208861 60.07110847 119.6399679 61.83206762 119.03515625 65.4609375 C117.38819885 68.10959625 117.38819885 68.10959625 115.03515625 70.4609375 C112.21153259 71.08455658 112.21153259 71.08455658 108.88647461 71.08239746 C107.62463348 71.09360626 106.36279236 71.10481506 105.06271362 71.11636353 C103.6668045 71.10345275 102.27089996 71.09003864 100.875 71.07617188 C99.40307984 71.07967329 97.93116346 71.0853321 96.45925903 71.09298706 C92.46323591 71.1072422 88.4679003 71.09016701 84.4719429 71.06670189 C80.29111224 71.0466041 76.11031044 71.05247188 71.92944336 71.05480957 C64.90825045 71.05475599 57.88732654 71.03499218 50.86621094 71.00292969 C42.74772576 70.96603628 34.62959302 70.95725398 26.51103497 70.9642272 C18.70271226 70.97053153 10.89451047 70.95977924 3.08621216 70.94026184 C-0.23747479 70.93208509 -3.56109997 70.9293788 -6.88479614 70.93095398 C-10.79846196 70.93183266 -14.71179262 70.91762148 -18.62537003 70.89172745 C-20.06207784 70.88456271 -21.49882131 70.88248352 -22.93554306 70.88584518 C-24.89577226 70.88955702 -26.85600869 70.87297753 -28.81616211 70.85534668 C-30.46206581 70.84975361 -30.46206581 70.84975361 -32.14122009 70.84404755 C-35.33752528 70.41037197 -36.70512982 69.73682799 -38.96484375 67.4609375 C-40.07757113 63.45511892 -40.40136278 61.37365911 -38.58984375 57.5859375 C-36.96484375 55.4609375 -36.96484375 55.4609375 -35.96484375 54.4609375 C-34.11114764 54.37356105 -32.25416834 54.35395597 -30.3984375 54.36328125 C-29.27373047 54.36650391 -28.14902344 54.36972656 -26.99023438 54.37304688 C-25.80623047 54.38142578 -24.62222656 54.38980469 -23.40234375 54.3984375 C-22.21447266 54.40294922 -21.02660156 54.40746094 -19.80273438 54.41210938 C-16.85672149 54.42394075 -13.91080694 54.44042463 -10.96484375 54.4609375 C-10.96928497 53.88322098 -10.9737262 53.30550446 -10.978302 52.71028137 C-11.02258397 46.6918892 -11.05273042 40.67354339 -11.07470703 34.6550293 C-11.08475819 32.40956746 -11.09840119 30.16411869 -11.11572266 27.91870117 C-11.14000956 24.68925753 -11.15133582 21.45998712 -11.16015625 18.23046875 C-11.17047882 17.22820755 -11.18080139 16.22594635 -11.19143677 15.1933136 C-11.19158783 14.25271591 -11.19173889 13.31211823 -11.19189453 12.34301758 C-11.19633575 11.51917068 -11.20077698 10.69532379 -11.20535278 9.84651184 C-10.92253149 7.0412483 -10.23666524 4.97558599 -8.96484375 2.4609375 C-5.75047846 0.31802731 -3.79057766 0.16067959 0 0 Z " fill="#000000" transform="translate(97.96484375,193.5390625)"/>
<path d="M0 0 C1.184729 -0.01268417 2.36945801 -0.02536835 3.59008789 -0.03843689 C4.86102295 -0.03550125 6.13195801 -0.03256561 7.44140625 -0.02954102 C8.75423584 -0.03478287 10.06706543 -0.04002472 11.41967773 -0.04542542 C14.19362015 -0.0543421 16.96727444 -0.05194963 19.74121094 -0.04199219 C23.28892376 -0.03049544 26.83564225 -0.05073029 30.38322449 -0.07990932 C33.77767075 -0.10270598 37.17188529 -0.09580374 40.56640625 -0.09204102 C41.83734131 -0.10327499 43.10827637 -0.11450897 44.41772461 -0.12608337 C45.60245361 -0.11670242 46.78718262 -0.10732147 48.0078125 -0.09765625 C49.56737671 -0.097407 49.56737671 -0.097407 51.15844727 -0.09715271 C54.76472546 0.53806511 56.43174751 1.83689924 59.00390625 4.40405273 C60.16988035 8.41208871 60.43631126 10.45687985 58.69140625 14.27905273 C57.00390625 16.40405273 57.00390625 16.40405273 55.00390625 17.40405273 C53.01849955 17.51080214 51.02949629 17.55290762 49.04125977 17.56518555 C47.78978653 17.57479309 46.53831329 17.58440063 45.24891663 17.59429932 C43.87688376 17.59914657 42.50484879 17.60342557 41.1328125 17.60717773 C39.73038226 17.61292879 38.32795204 17.61868653 36.92552185 17.62445068 C33.98411696 17.63495945 31.04273939 17.64080313 28.10131836 17.64428711 C24.33045976 17.64977599 20.55996151 17.67381245 16.78921604 17.70225906 C13.8921757 17.72087199 10.99522246 17.72609028 8.09812737 17.72762299 C6.70783452 17.7306524 5.3175433 17.73869072 3.92730904 17.75180817 C1.98359425 17.76884085 0.03973112 17.76514763 -1.90405273 17.76049805 C-3.01054672 17.76414368 -4.11704071 17.76778931 -5.25706482 17.77154541 C-7.99609375 17.40405273 -7.99609375 17.40405273 -9.84754944 16.04388428 C-11.51314458 13.66583458 -11.46516852 11.78009878 -11.49609375 8.90405273 C-11.52703125 7.94499023 -11.55796875 6.98592773 -11.58984375 5.99780273 C-10.99609375 3.40405273 -10.99609375 3.40405273 -8.83374023 1.76719666 C-5.62661281 0.22656209 -3.54288332 0.01841105 0 0 Z " fill="#000000" transform="translate(10.99609375,204.595947265625)"/>
</svg>
