<?xml version="1.0" encoding="UTF-8"?>
<svg version="1.1" xmlns="http://www.w3.org/2000/svg" width="512" height="512">
<path d="M0 0 C9.85211889 6.33688287 16.6140906 13.68858623 21.1875 24.625 C22.18743172 30.95790087 22.62821362 37.39788025 20.6875 43.5625 C19.44898372 48.35142963 20.01687637 52.52546733 20.44921875 57.421875 C21.55143905 71.22110054 21.3941817 82.86130656 12.75 94.1875 C7.21539273 99.95683391 0.28847277 102.05159938 -7.25 104.1875 C-6.73050781 104.5278125 -6.21101562 104.868125 -5.67578125 105.21875 C1.66128303 110.31807748 6.12117002 116.25794987 7.75 125.1875 C8.1286104 130.33303478 8.16385456 135.48899439 8.22851562 140.64648438 C8.25494141 141.68482422 8.28136719 142.72316406 8.30859375 143.79296875 C8.32877563 145.20292114 8.32877563 145.20292114 8.34936523 146.64135742 C8.83107673 149.70276458 9.62646568 150.94833608 11.75 153.1875 C13.99625358 153.77516139 13.99625358 153.77516139 16.54101562 153.66992188 C17.5121228 153.67672974 18.48322998 153.6835376 19.48376465 153.69055176 C21.0541449 153.67357239 21.0541449 153.67357239 22.65625 153.65625 C24.27061951 153.66682434 24.27061951 153.66682434 25.91760254 153.6776123 C29.36197544 153.69971163 32.80557648 153.69662112 36.25 153.6875 C40.78167254 153.67549975 45.31218032 153.6890676 49.84375 153.71875 C51.41413025 153.70177063 51.41413025 153.70177063 53.01623535 153.68444824 C53.98734253 153.6912561 54.95844971 153.69806396 55.95898438 153.70507812 C56.81375366 153.70189575 57.66852295 153.69871338 58.54919434 153.69543457 C60.75 154.1875 60.75 154.1875 62.54943848 156.09265137 C63.75 158.1875 63.75 158.1875 63.75 160.1875 C64.45125 160.14109375 65.1525 160.0946875 65.875 160.046875 C74.23607762 159.72879053 79.29937539 161.12027813 85.5625 166.6875 C88.88715637 170.48710728 90.93706405 173.27826125 92.25 178.1875 C101.57097565 207.28453805 125.16323539 238.88019183 149.4453125 257.2578125 C155.40368893 262.24669039 155.40368893 262.24669039 156.09854126 266.14080811 C156.21232923 268.50624265 156.19970628 270.83958661 156.140625 273.20703125 C156.13496521 274.06560226 156.12930542 274.92417328 156.12347412 275.8087616 C156.10115787 278.5397516 156.05097167 281.26940939 156 284 C155.9799288 285.85610079 155.96167911 287.71222223 155.9453125 289.56835938 C155.90130881 294.10858296 155.83231521 298.64781593 155.75 303.1875 C156.74 303.5175 157.73 303.8475 158.75 304.1875 C172.17365179 318.78679008 181.5780056 337.25573246 182.0625 357.375 C182.09988281 358.39980469 182.13726562 359.42460937 182.17578125 360.48046875 C181.75 363.1875 181.75 363.1875 180.12109375 365.0390625 C177.08368465 366.51022935 174.86021708 366.4845723 171.5 366.375 C170.42234375 366.34792969 169.3446875 366.32085937 168.234375 366.29296875 C167.00460937 366.24076172 167.00460937 366.24076172 165.75 366.1875 C165.6675 367.30125 165.585 368.415 165.5 369.5625 C164.34125774 378.56259401 160.04905531 385.9830101 154.75 393.1875 C153.63625 394.734375 153.63625 394.734375 152.5 396.3125 C144.04724723 405.14946881 131.622926 412.10439617 119.1875 412.42578125 C102.17712905 412.77405224 88.37686661 409.68698505 75.40234375 397.93359375 C66.70132884 388.73890424 62.1354009 378.65610811 60.75 366.1875 C20.16 366.1875 -20.43 366.1875 -62.25 366.1875 C-62.91 369.4875 -63.57 372.7875 -64.25 376.1875 C-70.00162903 391.18281855 -79.55063844 402.35662022 -94.25 409.1875 C-101.13501739 411.80350661 -107.41558702 412.66000327 -114.75 412.5625 C-115.62269531 412.57410156 -116.49539062 412.58570313 -117.39453125 412.59765625 C-131.80262962 412.53362026 -144.27395234 406.36782411 -154.41015625 396.34375 C-162.16851961 388.10974828 -166.15742087 378.21268343 -168.25 367.1875 C-168.89549805 367.17291748 -169.54099609 367.15833496 -170.20605469 367.14331055 C-173.13796573 367.0687213 -176.06875165 366.9720976 -179 366.875 C-180.01578125 366.85244141 -181.0315625 366.82988281 -182.078125 366.80664062 C-183.0578125 366.77119141 -184.0375 366.73574219 -185.046875 366.69921875 C-185.94760742 366.67303467 -186.84833984 366.64685059 -187.77636719 366.61987305 C-190.72630837 366.10424476 -192.13110325 365.29034451 -194.25 363.1875 C-194.66927158 360.32042229 -194.81973475 357.92583286 -194.75 355.0625 C-194.73646484 354.26279785 -194.72292969 353.4630957 -194.70898438 352.63916016 C-193.94244733 329.97729461 -183.64190341 309.65659926 -167.37109375 294.0078125 C-163.05158053 290.30082694 -158.35494208 286.73997104 -153.25 284.1875 C-153.58 283.23875 -153.91 282.29 -154.25 281.3125 C-156.13701187 274.59256564 -156.14097338 267.53059084 -153.35546875 261.0703125 C-149.89747536 255.18072658 -144.8872724 250.95686263 -138.25 249.1875 C-133.42931473 248.77494955 -128.61877729 248.83762558 -123.78515625 248.89453125 C-122.38268998 248.90013437 -120.9802178 248.90440108 -119.57774353 248.90739441 C-115.9066413 248.91878698 -112.23590154 248.94820489 -108.56494141 248.98150635 C-104.81092226 249.01232869 -101.05684389 249.02592559 -97.30273438 249.04101562 C-89.95165861 249.07308092 -82.60088031 249.12420829 -75.25 249.1875 C-75.39147461 248.44129395 -75.53294922 247.69508789 -75.67871094 246.92626953 C-75.86208008 245.94255371 -76.04544922 244.95883789 -76.234375 243.9453125 C-76.41709961 242.97223145 -76.59982422 241.99915039 -76.78808594 240.99658203 C-77.67529949 235.60108565 -77.46933419 230.78700106 -76.234375 225.4453125 C-76.05100586 224.64496582 -75.86763672 223.84461914 -75.67871094 223.02001953 C-75.53723633 222.41528809 -75.39576172 221.81055664 -75.25 221.1875 C-75.98249466 221.19416183 -76.71498932 221.20082367 -77.46968079 221.20768738 C-84.37056803 221.26778233 -91.2714162 221.31346617 -98.17249775 221.34293652 C-101.72049936 221.35859693 -105.26828487 221.37984151 -108.81616211 221.41381836 C-112.89438967 221.45263007 -116.97239001 221.46720602 -121.05078125 221.48046875 C-122.32585037 221.49595261 -123.60091949 221.51143646 -124.91462708 221.52738953 C-126.09562485 221.52761612 -127.27662262 221.52784271 -128.4934082 221.52807617 C-130.05560844 221.53806892 -130.05560844 221.53806892 -131.64936829 221.54826355 C-134.25 221.1875 -134.25 221.1875 -136.08453369 220.17098999 C-137.94863622 216.99850128 -137.67476166 213.688586 -137.65405273 210.11108398 C-137.66091599 209.28790176 -137.66777924 208.46471954 -137.67485046 207.61659241 C-137.69318388 204.88875167 -137.68926891 202.16148305 -137.68359375 199.43359375 C-137.68815518 197.53369459 -137.69346063 195.63379708 -137.69947815 193.73390198 C-137.70842414 189.744978 -137.70597247 185.75625401 -137.69604492 181.76733398 C-137.68460289 176.67542599 -137.70468561 171.5842164 -137.73396206 166.49240017 C-137.7523927 162.5639258 -137.75201712 158.63561625 -137.74632454 154.70710945 C-137.7461719 152.83138111 -137.75216878 150.95564119 -137.76461601 149.07995415 C-137.82806714 137.94182124 -137.53439159 129.16947148 -131.5625 119.4375 C-121.90338392 110.03944111 -112.82513555 108.90360803 -99.8359375 108.9140625 C-97.86838739 108.89896833 -95.90083714 108.88385124 -93.93329811 108.86737633 C-89.10564924 108.82971387 -84.27797942 108.81243425 -79.45019531 108.80664062 C-76.73163889 108.80259351 -74.01351164 108.78802846 -71.29507446 108.76229858 C-68.74095321 108.73887472 -66.18662338 108.73148223 -63.63241577 108.74185181 C-62.4741629 108.72858856 -61.31591003 108.71532532 -60.12255859 108.70166016 C-59.10664642 108.69881012 -58.09073425 108.69596008 -57.04403687 108.69302368 C-53.5304165 108.05730612 -51.87366354 106.54670149 -49.25 104.1875 C-48.59 103.8575 -47.93 103.5275 -47.25 103.1875 C-47.25 100.8775 -47.25 98.5675 -47.25 96.1875 C-47.92804688 95.85878906 -48.60609375 95.53007812 -49.3046875 95.19140625 C-63.98832479 87.68688802 -73.22668597 77.23458794 -78.5234375 61.59765625 C-78.76320313 60.80230469 -79.00296875 60.00695312 -79.25 59.1875 C-79.54003906 58.28837891 -79.54003906 58.28837891 -79.8359375 57.37109375 C-82.61786309 42.70037297 -79.52346351 27.50737361 -71.25 15.1875 C-54.03197226 -7.30808413 -24.88355124 -14.02049035 0 0 Z M-55.6875 17.0625 C-64.50485569 26.72134607 -67.92448276 36.62508222 -67.59765625 49.7265625 C-66.44682478 61.18315448 -60.34493395 71.35043755 -51.5234375 78.6171875 C-45.36789358 82.86895495 -38.72973394 85.68885107 -31.25 86.1875 C-31.25 83.5475 -31.25 80.9075 -31.25 78.1875 C-31.79269531 77.95675781 -32.33539063 77.72601563 -32.89453125 77.48828125 C-33.60996094 77.16214844 -34.32539063 76.83601563 -35.0625 76.5 C-35.77019531 76.18675781 -36.47789062 75.87351562 -37.20703125 75.55078125 C-40.00981249 73.68047408 -40.92542232 72.31645595 -42.25 69.1875 C-42.67507868 65.84515643 -42.66889312 62.55263958 -42.625 59.1875 C-42.63660156 58.29804688 -42.64820313 57.40859375 -42.66015625 56.4921875 C-42.6332854 50.49103112 -41.80446988 46.93846756 -37.625 42.4375 C-35.03313741 41.07336179 -34.03486222 41.16719795 -31.1875 41.1875 C-24.94356619 40.77262068 -21.48148973 35.99857738 -17.53515625 31.65625 C-14.8338601 28.73792663 -14.18350166 28.24584385 -10.25 28 C-6.24566268 28.04197419 -2.47577178 28.86701002 1.41796875 29.75 C4.00978321 30.31042529 4.00978321 30.31042529 7.75 30.1875 C7.36744627 24.06664033 3.26219887 19.58220182 -1.00390625 15.515625 C-17.66748382 2.01777929 -39.87279086 1.98956896 -55.6875 17.0625 Z M-14 46.125 C-17.51588396 49.91297817 -19.58784285 51.84637842 -24.8125 52.25 C-26.29172517 52.23384621 -27.77093108 52.21439216 -29.25 52.1875 C-30.56262571 53.27302366 -30.56262571 53.27302366 -30.34765625 55.91015625 C-30.33605469 57.01230469 -30.32445312 58.11445313 -30.3125 59.25 C-30.30347656 60.35472656 -30.29445312 61.45945312 -30.28515625 62.59765625 C-30.27355469 63.45230469 -30.26195312 64.30695313 -30.25 65.1875 C-25.3 66.1775 -25.3 66.1775 -20.25 67.1875 C-19.29831317 70.04256049 -19.0599054 72.09687282 -18.93359375 75.07421875 C-18.89169922 76.01201172 -18.84980469 76.94980469 -18.80664062 77.91601562 C-18.76732422 78.89248047 -18.72800781 79.86894531 -18.6875 80.875 C-18.64431641 81.86306641 -18.60113281 82.85113281 -18.55664062 83.86914062 C-18.45058346 86.30845546 -18.34852286 88.74787113 -18.25 91.1875 C-9.42159712 90.8932199 -2.38702879 90.21565961 4.125 83.875 C9.74651042 74.57788661 8.07949348 64.18113733 6.1953125 54.00390625 C5.61491401 50.33314035 5.60740821 46.89488642 5.75 43.1875 C4.37705778 42.84578994 3.00149882 42.51458883 1.625 42.1875 C0.85929687 42.001875 0.09359375 41.81625 -0.6953125 41.625 C-7.30531913 40.4930111 -9.60148491 40.86301803 -14 46.125 Z M-33.25 99.1875 C-33.25 99.5175 -33.25 99.8475 -33.25 100.1875 C-29.62 100.1875 -25.99 100.1875 -22.25 100.1875 C-22.25 99.8575 -22.25 99.5275 -22.25 99.1875 C-25.88 99.1875 -29.51 99.1875 -33.25 99.1875 Z M-46.0625 118.375 C-50.5467703 124.14049038 -51.70054422 130.1093249 -51.59057617 137.34765625 C-51.59101425 138.11935654 -51.59145233 138.89105682 -51.59190369 139.68614197 C-51.58983284 142.20769582 -51.56658378 144.72856397 -51.54296875 147.25 C-51.53736671 149.00976193 -51.53309948 150.76952857 -51.53010559 152.52929688 C-51.51870468 157.13907002 -51.48927892 161.7485552 -51.45599365 166.35821533 C-51.4197646 171.90078278 -51.40610895 177.44344703 -51.38863373 182.98609924 C-51.35963833 191.38676584 -51.3021183 199.78680181 -51.25 208.1875 C-36.07 208.1875 -20.89 208.1875 -5.25 208.1875 C-3.44746167 189.04960803 -3.44746167 189.04960803 -8.76660156 181.33447266 C-10.33894702 179.78520201 -11.9669029 178.29071645 -13.640625 176.8515625 C-14.49678406 176.03223236 -15.35294312 175.21290222 -16.23504639 174.3687439 C-18.94435359 171.79525029 -21.71586884 169.30460975 -24.5 166.8125 C-27.25217512 164.25570278 -29.98935399 161.6838257 -32.72210693 159.10629272 C-34.41705453 157.51787232 -36.12597841 155.94419135 -37.85064697 154.38809204 C-43.84301585 148.91785765 -48.66993727 143.82621631 -49.34765625 135.296875 C-49.03109764 128.45920902 -46.18621905 122.79463778 -41.25 118.1875 C-35.03337182 114.73236349 -29.34953894 114.52694252 -22.4375 116 C-16.29327163 118.46009144 -12.41167413 124.27923779 -8.25 129.1875 C-7.26405959 130.20136464 -6.27125187 131.20921342 -5.25 132.1875 C-5.65281771 126.34664326 -6.362779 122.81014119 -10.25 118.1875 C-20.13316432 110.4071366 -36.17035241 110.68110743 -46.0625 118.375 Z M-120.66838074 127.58355713 C-125.88186755 134.5575926 -124.87637405 142.88344398 -124.73828125 151.15625 C-124.7289433 152.80390342 -124.72183183 154.45157083 -124.71684265 156.09924316 C-124.69784982 160.41336114 -124.64881738 164.72662304 -124.59332275 169.04040527 C-124.53291535 174.22826448 -124.51017715 179.41641167 -124.48105621 184.60452271 C-124.43274591 192.46610857 -124.33688006 200.32582008 -124.25 208.1875 C-113.36 208.1875 -102.47 208.1875 -91.25 208.1875 C-91.21261719 202.87785156 -91.17523438 197.56820312 -91.13671875 192.09765625 C-91.10641923 188.72067155 -91.07525846 185.34373829 -91.04101562 181.96679688 C-90.986824 176.61452928 -90.9357091 171.26236344 -90.90356445 165.90991211 C-90.87742905 161.59143703 -90.83695537 157.27330639 -90.78681374 152.9550457 C-90.77021392 151.31299585 -90.75865698 149.67088651 -90.75238609 148.02876472 C-90.71339147 138.75060353 -90.49709678 130.68169355 -86.25 122.1875 C-90.24974981 122.07039021 -94.24905281 121.99994511 -98.25 121.9375 C-99.37535156 121.90398437 -100.50070313 121.87046875 -101.66015625 121.8359375 C-109.20841568 121.74765376 -115.10401305 122.10676591 -120.66838074 127.58355713 Z M-72.94140625 126.83984375 C-77.46002731 131.98998293 -78.37547781 135.28489125 -78.36352539 142.22924805 C-78.36367142 142.94169678 -78.36381744 143.65414551 -78.3639679 144.38818359 C-78.36327151 146.741893 -78.35549192 149.09552317 -78.34765625 151.44921875 C-78.3457911 153.08160865 -78.34436765 154.71399911 -78.34336853 156.34638977 C-78.33955101 160.64211575 -78.32972724 164.93780789 -78.31866455 169.23352051 C-78.30843399 173.61726423 -78.30386738 178.00101341 -78.29882812 182.38476562 C-78.2881043 190.98569433 -78.27051368 199.58658906 -78.25 208.1875 C-73.63 208.1875 -69.01 208.1875 -64.25 208.1875 C-63.92 179.8075 -63.59 151.4275 -63.25 122.1875 C-67.13339315 122.1875 -70.21368582 124.17511917 -72.94140625 126.83984375 Z M-34 128.75 C-36.49888226 131.02627214 -36.49888226 131.02627214 -36.83422852 134.25024414 C-35.40609719 143.87476314 -25.62064997 151.79841968 -19.1875 158.625 C-18.31617432 159.5545752 -17.44484863 160.48415039 -16.54711914 161.44189453 C-5.51954734 172.85940592 3.9128783 180.21922528 20.13673401 180.96690369 C30.42044413 181.02320057 40.62724164 179.93372955 50.75 178.1875 C50.75 174.5575 50.75 170.9275 50.75 167.1875 C48.83537964 167.16562622 48.83537964 167.16562622 46.88208008 167.14331055 C42.13879621 167.0852646 37.39598393 167.00803172 32.65307617 166.92504883 C30.60172184 166.89182917 28.55027675 166.86378803 26.4987793 166.84106445 C23.54697051 166.8074643 20.59599114 166.75514524 17.64453125 166.69921875 C16.72976517 166.69282883 15.81499908 166.6864389 14.87251282 166.67985535 C8.97745479 166.54425311 5.37598673 165.81463278 1.07177734 161.50854492 C0.5814502 160.90115479 0.09112305 160.29376465 -0.4140625 159.66796875 C-0.97359619 158.98186523 -1.53312988 158.29576172 -2.10961914 157.58886719 C-2.69219482 156.85829102 -3.27477051 156.12771484 -3.875 155.375 C-4.48529053 154.62250977 -5.09558105 153.87001953 -5.72436523 153.09472656 C-10.08674625 147.69817754 -14.39143862 142.25290968 -18.60986328 136.74291992 C-21.2732218 133.29526273 -23.94832564 130.04014665 -27.25 127.1875 C-31.1975115 126.85816039 -31.1975115 126.85816039 -34 128.75 Z M63.75 173.1875 C63.75 174.8375 63.75 176.4875 63.75 178.1875 C68.37 178.1875 72.99 178.1875 77.75 178.1875 C74.26169563 174.21166987 74.26169563 174.21166987 69.8046875 173.08984375 C69.08539063 173.10144531 68.36609375 173.11304688 67.625 173.125 C65.706875 173.1559375 65.706875 173.1559375 63.75 173.1875 Z M7.75 191.1875 C7.75 197.1275 7.75 203.0675 7.75 209.1875 C9.68875 209.55875 11.6275 209.93 13.625 210.3125 C25.14244429 212.99155769 33.1043358 218.99840026 40.11328125 228.3359375 C44.21182668 235.06328982 45.96243441 242.92627388 48.125 250.4375 C48.63154328 252.16368866 49.13905477 253.88959346 49.64746094 255.61523438 C51.05324031 260.40174803 52.44161373 265.19314726 53.82531738 269.98608398 C54.80411362 273.37485098 55.78605109 276.76269673 56.76855469 280.15039062 C61.11907883 295.15606047 65.44501356 310.16870504 69.75 325.1875 C71.01660777 324.25068357 72.28138643 323.31139385 73.54541016 322.37109375 C74.60219467 321.58690063 74.60219467 321.58690063 75.68032837 320.78686523 C78.70228931 318.45160625 81.43125004 315.88970227 84.125 313.1875 C84.67591309 312.63497559 85.22682617 312.08245117 85.79443359 311.51318359 C89.67269384 307.52062617 93.12995079 303.33286942 96.375 298.8125 C96.97707275 297.97525391 96.97707275 297.97525391 97.59130859 297.12109375 C100.22820318 293.30128258 102.30433227 289.60086708 103.75 285.1875 C102.98667535 281.89506362 102.98667535 281.89506362 101.1484375 278.75 C100.84114716 278.15654785 100.53385681 277.5630957 100.21725464 276.95166016 C99.20952738 275.01714582 98.16753904 273.10344054 97.125 271.1875 C96.41734023 269.84136804 95.71261283 268.49369069 95.01074219 267.14453125 C93.596889 264.42891941 92.1732008 261.71883833 90.74316406 259.01171875 C88.0115317 253.80842426 85.49695667 248.5065379 83 243.1875 C79.07666255 234.9026417 75.04105838 226.68188104 70.89160156 218.5078125 C66.32995682 209.47769093 62.08726007 200.34393794 57.75 191.1875 C41.25 191.1875 24.75 191.1875 7.75 191.1875 Z M71.75 191.1875 C79.472302 207.66124469 87.49395702 223.98348101 95.5324707 240.3046875 C97.22205652 243.73639511 98.91025346 247.168781 100.59765625 250.6015625 C101.13532623 251.69446594 101.67299622 252.78736938 102.22695923 253.91339111 C105.70591511 261.00369359 109.11825318 268.12127939 112.38868713 275.31045532 C113.63185515 278.008869 114.63014429 280.06764429 116.75 282.1875 C119.9084024 283.23907089 123.07663538 284.17168355 126.28125 285.06835938 C132.12505654 286.78940467 137.37266489 289.34243374 142.75 292.1875 C144.72708999 278.13645278 144.72708999 278.13645278 140.32421875 265.421875 C137.42188546 262.57718534 134.15654334 260.38720261 130.75 258.1875 C129.458843 257.14979233 128.18341936 256.09160825 126.9375 255 C126.40125 254.54367187 125.865 254.08734375 125.3125 253.6171875 C106.92244337 236.79028569 94.64592571 212.65312111 82.75 191.1875 C79.12 191.1875 75.49 191.1875 71.75 191.1875 Z M-62.10917664 223.57041931 C-64.99445521 230.18932901 -64.59657364 236.69420307 -62.7578125 243.55859375 C-62.47824707 244.61876709 -62.19868164 245.67894043 -61.91064453 246.77124023 C-61.69263184 247.56860596 -61.47461914 248.36597168 -61.25 249.1875 C-60.62883301 249.19114563 -60.00766602 249.19479126 -59.36767578 249.19854736 C-52.87804307 249.24049342 -46.38910963 249.3099238 -39.89990234 249.39501953 C-37.48102832 249.42317231 -35.06206327 249.44441502 -32.64306641 249.45849609 C-29.15740551 249.48000367 -25.67283248 249.52669693 -22.1875 249.578125 C-20.57609131 249.57996796 -20.57609131 249.57996796 -18.93212891 249.58184814 C-10.83253444 249.73835973 -5.29480289 251.21035939 0.5625 256.9375 C4.202729 262.34584023 5.69635374 267.96794061 7.40234375 274.1796875 C10.1542742 283.84629055 13.46907524 293.31526628 16.75 302.8125 C17.67922971 305.512983 18.60743939 308.21381469 19.53540039 310.91473389 C20.13012668 312.64487233 20.7256487 314.37473748 21.32202148 316.10430908 C23.27681733 321.77961751 25.17914187 327.46884755 27.0234375 333.18115234 C27.57877821 335.15764146 27.57877821 335.15764146 28.75 336.1875 C35.32980641 336.13454381 41.8620679 334.88845952 48.3125 333.6875 C49.01511963 333.55698242 49.71773926 333.42646484 50.44165039 333.29199219 C54.20476835 332.58257717 54.20476835 332.58257717 57.75 331.1875 C56.05216534 321.60378969 53.36738258 312.34028771 50.69921875 302.9921875 C50.45354471 302.12873844 50.20787067 301.26528938 49.95475197 300.3756752 C48.65660136 295.81347549 47.35385933 291.25261766 46.04711914 286.69287109 C44.70447833 282.00462348 43.3772442 277.31216031 42.05351543 272.61854362 C41.0263983 268.98714679 39.98806134 265.35902688 38.94669533 261.73169327 C38.45259678 260.00344713 37.96263155 258.27401337 37.47702599 256.54336166 C33.60225263 242.75761588 29.56323589 232.45543906 17.10546875 224.30078125 C8.93514085 220.43918349 0.24820633 220.84410992 -8.58203125 220.81640625 C-10.06556788 220.8074276 -11.54910364 220.79830555 -13.03263855 220.78904724 C-16.12651768 220.77263795 -19.2202895 220.76487033 -22.31420898 220.76196289 C-26.28022117 220.75654707 -30.24523027 220.71870369 -34.21095753 220.67321873 C-37.26757032 220.64352134 -40.32393744 220.63624117 -43.38068199 220.63523674 C-44.84357043 220.63102987 -46.3064593 220.61857658 -47.76920509 220.59771919 C-49.80795865 220.57092823 -51.84707851 220.5787137 -53.88598633 220.58813477 C-55.04544266 220.58306412 -56.20489899 220.57799347 -57.39949036 220.57276917 C-60.44345168 220.91051305 -60.44345168 220.91051305 -62.10917664 223.57041931 Z M-141.25 267.1875 C-142.35949563 271.07073469 -142.6612222 273.18229018 -141.125 276.9375 C-138.43263162 280.16834206 -136.197035 281.95906533 -131.89328003 282.4640007 C-128.8404727 282.57925761 -125.80107084 282.59260658 -122.74609375 282.57568359 C-121.00140305 282.58356903 -121.00140305 282.58356903 -119.22146606 282.59161377 C-115.37667411 282.60481763 -111.53229617 282.59607389 -107.6875 282.5859375 C-105.01618942 282.58795812 -102.34489142 282.59086484 -99.67358398 282.59463501 C-94.07498692 282.60008867 -88.4765087 282.59291125 -82.87792969 282.57861328 C-76.41072408 282.5622874 -69.94380224 282.56757619 -63.47660351 282.5840925 C-57.91805949 282.59771854 -52.35960075 282.59962159 -46.80104542 282.59177649 C-43.48375324 282.58710607 -40.16662324 282.58764028 -36.84933472 282.59638596 C-33.15066287 282.60399692 -29.45253737 282.59240021 -25.75390625 282.57568359 C-24.65764923 282.58175629 -23.56139221 282.58782898 -22.43191528 282.59408569 C-15.32090016 282.61639964 -15.32090016 282.61639964 -9.25 279.1875 C-6.73535777 276.16992933 -6.25812894 274.64272051 -6.1875 270.6875 C-7.26413355 267.14094241 -8.31546486 265.49204407 -11.22190666 263.22063065 C-15.53976902 261.0210692 -20.40401874 261.49773126 -25.14282227 261.54052734 C-26.33535614 261.53176575 -27.52789001 261.52300415 -28.75656128 261.51397705 C-32.01504785 261.49578148 -35.27251354 261.49998751 -38.53098416 261.51587248 C-41.94661617 261.5285673 -45.36218197 261.51678174 -48.77781677 261.50894165 C-54.51175103 261.49985663 -60.2453628 261.51180372 -65.97924805 261.53564453 C-72.6028505 261.56286711 -79.22568365 261.55402969 -85.84926754 261.5265125 C-91.54375391 261.50380478 -97.23800903 261.50062892 -102.93252605 261.51370585 C-106.33035989 261.52148977 -109.72783235 261.52257152 -113.12564278 261.50602341 C-116.91315032 261.49333988 -120.6991753 261.51266023 -124.48657227 261.54052734 C-126.17067955 261.52534561 -126.17067955 261.52534561 -127.8888092 261.50985718 C-134.00992697 261.59339097 -137.54738495 261.76045259 -141.25 267.1875 Z M-6.875 292.125 C-11.26379143 294.43360218 -15.3434081 294.96034297 -20.25 295.1875 C-23.10314241 311.73572595 -17.56675924 327.15346321 -8.4375 340.75 C-8.04038818 341.30945313 -7.64327637 341.86890625 -7.23413086 342.4453125 C-4.50602627 346.36368033 -4.0910251 348.14134938 -3.25 353.1875 C3.68 353.1875 10.61 353.1875 17.75 353.1875 C17.86725363 345.24093069 17.86725363 345.24093069 16.09765625 338.20874023 C15.55709595 336.58807899 15.55709595 336.58807899 15.00561523 334.93467712 C14.61188721 333.79994461 14.21815918 332.6652121 13.8125 331.49609375 C13.21320679 329.7173159 13.21320679 329.7173159 12.60180664 327.90260315 C11.54618728 324.77737154 10.47900156 321.6564262 9.40588379 318.53717041 C8.31013028 315.34259924 7.22997996 312.1427635 6.1484375 308.94335938 C4.02985 302.68649841 1.89590739 296.43504025 -0.25 290.1875 C-3.42489599 290.1875 -4.22998883 290.59568284 -6.875 292.125 Z M-154.875 301.3125 C-157.40843916 303.53698317 -159.84392998 305.82621301 -162.25 308.1875 C-162.87777344 308.79078125 -163.50554687 309.3940625 -164.15234375 310.015625 C-174.19250182 320.48835223 -180.95080959 336.12992122 -181.34375 350.65234375 C-181.3128125 351.48894531 -181.281875 352.32554687 -181.25 353.1875 C-180.26 352.6925 -180.26 352.6925 -179.25 352.1875 C-178.8222662 350.40457 -178.40687937 348.61760534 -178.06030273 346.81713867 C-174.87176916 330.30221577 -166.94002972 316.39780571 -153.48828125 306.06640625 C-147.4272584 302.04589894 -140.94570194 298.99788166 -134.25 296.1875 C-142.53622359 290.66335094 -148.00656433 295.75233779 -154.875 301.3125 Z M113.75 294.1875 C113.16734375 295.19167969 112.5846875 296.19585937 111.984375 297.23046875 C106.1812323 306.99679185 99.74807891 315.14417029 91.75 323.1875 C91.05519531 323.90808594 90.36039062 324.62867188 89.64453125 325.37109375 C86.20367398 328.90309956 82.5907403 332.09617244 78.75 335.1875 C81.36545105 337.34140087 83.94587515 339.31142102 86.8125 341.125 C91.68675168 344.54734692 93.53566859 347.65167147 95.75 353.1875 C119.84 353.1875 143.93 353.1875 168.75 353.1875 C166.34324634 342.11154688 166.34324634 342.11154688 162.125 332.0625 C161.60450073 331.0559436 161.60450073 331.0559436 161.07348633 330.02905273 C152.45510973 313.93769468 138.64477563 302.7482144 121.75 296.1875 C119.09447317 295.40942206 116.45450761 294.78616186 113.75 294.1875 Z M-91.25 295.1875 C-88.4280025 297.06883167 -85.68683411 298.43111182 -82.625 299.875 C-76.88886382 302.72576973 -72.06429576 305.97965623 -67.25 310.1875 C-66.64671875 310.69667969 -66.0434375 311.20585937 -65.421875 311.73046875 C-53.49119993 322.61317912 -48.64492684 337.91032923 -45.25 353.1875 C-35.68 353.1875 -26.11 353.1875 -16.25 353.1875 C-17.92383 349.002925 -19.84023926 345.34293591 -22.125 341.5 C-30.83559785 326.51235944 -33.25 312.43819938 -33.25 295.1875 C-52.39 295.1875 -71.53 295.1875 -91.25 295.1875 Z M-155.25 325.1875 C-161.68021839 333.29768536 -166.25 342.72589875 -166.25 353.1875 C-130.61 353.1875 -94.97 353.1875 -58.25 353.1875 C-62.33396375 335.49032375 -68.559248 322.72822067 -84.25 312.75 C-109.15823899 299.02667088 -136.29086278 304.66443974 -155.25 325.1875 Z M55.45703125 344.5 C54.39798836 344.6997644 54.39798836 344.6997644 53.31755066 344.90356445 C51.0653757 345.32899276 48.81393927 345.75819709 46.5625 346.1875 C45.03455237 346.4768117 43.5065581 346.76587716 41.97851562 347.0546875 C38.23513006 347.76277015 34.49240236 348.47423991 30.75 349.1875 C30.75 350.5075 30.75 351.8275 30.75 353.1875 C47.25 353.1875 63.75 353.1875 80.75 353.1875 C77.42115635 349.85865635 75.20212878 348.10048367 71.1875 345.9375 C70.23746094 345.41671875 69.28742188 344.8959375 68.30859375 344.359375 C63.95991758 342.36761492 59.97854558 343.63303797 55.45703125 344.5 Z M-154.25 366.1875 C-153.82756923 375.69219243 -148.41425347 384.00660775 -141.6015625 390.3984375 C-130.78548812 398.62727814 -119.46071646 400.51190539 -106.25 399.1875 C-94.67099064 396.48704844 -85.64008931 388.49055397 -79.43359375 378.5390625 C-77.42873615 374.55581407 -76.34427632 370.50381215 -75.25 366.1875 C-78.88 366.1875 -82.51 366.1875 -86.25 366.1875 C-87.20921722 367.93701568 -88.16733817 369.68713244 -89.125 371.4375 C-89.65867187 372.41203125 -90.19234375 373.3865625 -90.7421875 374.390625 C-92.23553975 377.0557084 -92.23553975 377.0557084 -93.1953125 379.421875 C-94.55863219 381.70417316 -95.81537292 382.18605376 -98.25 383.1875 C-99.26126953 383.69990234 -99.26126953 383.69990234 -100.29296875 384.22265625 C-109.03844949 388.41220349 -116.93483163 389.21229619 -126.25 386.1875 C-133.67930273 382.79614867 -139.21392206 377.41358192 -142.125 369.75 C-142.49625 368.574375 -142.8675 367.39875 -143.25 366.1875 C-146.88 366.1875 -150.51 366.1875 -154.25 366.1875 Z M-129.25 366.1875 C-127.01713267 370.65323467 -125.06952656 373.02651848 -120.390625 374.953125 C-115.47316452 376.4397991 -112.09264067 376.19765273 -107.25 374.1875 C-103.29225562 371.60636236 -102.42380164 370.88270654 -101.25 366.1875 C-110.49 366.1875 -119.73 366.1875 -129.25 366.1875 Z M73.75 366.1875 C75.28257324 376.57494082 80.36516367 385.11175431 88.6015625 391.69140625 C98.12007678 398.31975347 108.32741943 401.17499792 119.9375 399.625 C130.82285869 397.34766838 139.86161803 391.67742895 146.57421875 382.765625 C150.0349797 377.36918419 151.73179747 372.50035569 152.75 366.1875 C149.12 366.1875 145.49 366.1875 141.75 366.1875 C141.22212891 367.38246094 141.22212891 367.38246094 140.68359375 368.6015625 C136.82255481 376.88817871 133.42706371 381.62835193 125.4375 386 C116.63034618 388.83620208 107.80812632 389.08443924 99.33203125 385.03125 C91.7531745 380.46108512 87.98240674 374.26851685 84.75 366.1875 C81.12 366.1875 77.49 366.1875 73.75 366.1875 Z M98.75 366.1875 C102.03598222 371.66413704 104.52680193 374.11310064 110.5625 376.125 C115.66407112 376.22503081 120.54697403 375.15084491 124.4375 371.68359375 C126.78234064 369.24656665 126.78234064 369.24656665 127.75 366.1875 C118.18 366.1875 108.61 366.1875 98.75 366.1875 Z " fill="#000000" transform="translate(213.25,84.8125)"/>
<path d="M0 0 C0.67831627 -0.00226556 1.35663254 -0.00453111 2.05550385 -0.00686532 C4.33324373 -0.01320623 6.61092413 -0.01237591 8.88867188 -0.0115509 C10.5196948 -0.01454229 12.15071701 -0.01794477 13.78173828 -0.02172852 C18.21550874 -0.0305736 22.6492599 -0.03290681 27.08303833 -0.0335443 C30.78107661 -0.03449292 34.47911037 -0.03817056 38.17714691 -0.0417164 C46.89869922 -0.04986247 55.6202412 -0.05230045 64.34179688 -0.05158997 C73.34805508 -0.05098874 82.35425346 -0.06154915 91.36049652 -0.07733363 C99.08623284 -0.09039293 106.81194956 -0.09577456 114.53769684 -0.09513456 C119.15495403 -0.09487915 123.77215806 -0.09775413 128.3894043 -0.10831261 C132.72974955 -0.11796685 137.06999051 -0.11809125 141.41033936 -0.11079597 C143.00551505 -0.10974687 144.60069715 -0.1121322 146.19586182 -0.11815643 C148.36897992 -0.12583348 150.54173392 -0.12126041 152.71484375 -0.11352539 C154.54106262 -0.11434254 154.54106262 -0.11434254 156.4041748 -0.1151762 C159.35742188 0.13371277 159.35742188 0.13371277 162.35742188 2.13371277 C162.97392673 7.68225646 162.97392673 7.68225646 162.35742188 10.13371277 C159.01496089 13.4400183 156.33151467 13.50778878 151.74212646 13.50552368 C150.74703815 13.51126053 150.74703815 13.51126053 149.73184705 13.51711327 C147.51014455 13.52639481 145.28906583 13.51440946 143.06738281 13.50260925 C141.47387941 13.50507735 139.88037762 13.50891585 138.28688049 13.51402283 C134.85522814 13.52236283 131.42374172 13.52155144 127.99208832 13.51383781 C122.56229475 13.50225605 117.13271464 13.51441724 111.70294189 13.53045654 C98.21337169 13.56665628 84.72380625 13.57288318 71.23419189 13.57035828 C60.75599366 13.56864608 50.27796972 13.57580363 39.79982018 13.61033684 C34.4061639 13.62710999 29.01293288 13.62535361 23.61927843 13.60951412 C20.25695524 13.60370442 16.89483229 13.6144805 13.53254509 13.62976074 C11.97817263 13.63347745 10.42376615 13.63040649 8.86942482 13.61989021 C-0.26673042 13.56221764 -7.38603569 13.68899156 -14.66601562 19.84465027 C-19.71672937 26.0631591 -21.13602433 31.37372138 -20.95117188 39.38761902 C-20.28892407 45.28078616 -17.71140001 49.40765619 -13.45507812 53.44621277 C-5.74244086 59.30686366 2.53771443 59.56593024 11.92285156 59.50260925 C13.76618576 59.50825897 13.76618576 59.50825897 15.64675903 59.51402283 C18.30364101 59.52043681 20.9599045 59.52159619 23.61672211 59.51383781 C27.8301314 59.50216504 32.04326988 59.51449295 36.25665283 59.53045654 C46.72223302 59.56650339 57.18780566 59.57288915 67.65344238 59.57035828 C75.79041919 59.56864061 83.92717161 59.57595428 92.0640862 59.61033684 C96.23959695 59.62699223 100.41455712 59.62545733 104.59006453 59.60951412 C107.81823318 59.60228087 111.04628067 59.6210068 114.27441406 59.63542175 C115.97843887 59.6208065 115.97843887 59.6208065 117.71688843 59.605896 C132.59060779 59.73756594 145.57153802 65.0978059 156.48242188 75.17277527 C165.67279148 84.78437015 171.42573277 97.471032 171.51855469 110.83512878 C171.52816223 111.95722244 171.53776978 113.0793161 171.54766846 114.2354126 C171.55404327 116.04325478 171.55404327 116.04325478 171.56054688 117.88761902 C171.56624695 119.1394548 171.57194702 120.39129059 171.57781982 121.68106079 C171.58726177 124.33141201 171.59416218 126.98165027 171.59765625 129.63200378 C171.60203055 132.32908231 171.61588484 135.02583908 171.63867188 137.7228241 C171.66934163 141.63201998 171.67972837 145.54081577 171.68554688 149.45011902 C171.69789368 150.64117752 171.71024048 151.83223602 171.72296143 153.05938721 C171.6806082 169.20641139 166.92608418 182.07758671 155.77539062 193.84465027 C141.26555477 207.58094076 124.70007518 209.51728315 105.56689453 209.55924988 C102.96620207 209.57128785 100.36778217 209.62073364 97.76757812 209.67082214 C96.10222496 209.68027381 94.43685746 209.68751484 92.77148438 209.69230652 C92.00059479 209.71183884 91.2297052 209.73137115 90.43545532 209.75149536 C86.40953558 209.71774142 84.55556887 209.28666358 81.33154297 206.79801941 C79.35742188 204.13371277 79.35742188 204.13371277 79.35742188 200.94621277 C80.35742188 198.13371277 80.35742188 198.13371277 83.35742188 196.13371277 C86.1766072 195.93988683 88.90501988 195.85674726 91.72460938 195.86027527 C93.43294889 195.83995491 95.14128215 195.81910362 96.84960938 195.79777527 C99.52609503 195.77536567 102.20233172 195.75877939 104.87890625 195.75285339 C120.42531112 195.69488768 134.4981733 194.58134262 146.32226562 183.25090027 C155.56520953 173.28493538 157.66883563 163.01788919 157.65820312 149.77043152 C157.66463081 147.98968987 157.66463081 147.98968987 157.67118835 146.17297363 C157.67691737 143.66746151 157.67744248 141.16193275 157.6730957 138.65641785 C157.66994116 134.84452077 157.69339543 131.03340436 157.71875 127.22160339 C157.72102382 124.77954707 157.7217261 122.33748868 157.72070312 119.89543152 C157.73451775 118.20120308 157.73451775 118.20120308 157.74861145 116.4727478 C157.67965109 104.5402639 154.61260086 94.18450662 146.57617188 85.12590027 C139.86488488 78.77218184 130.56231671 74.02797024 121.24253845 73.98895264 C120.18426849 73.98205414 119.12599854 73.97515564 118.03565979 73.9680481 C116.29408852 73.96412804 116.29408852 73.96412804 114.51733398 73.96012878 C113.29425537 73.95344177 112.07117676 73.94675476 110.81103516 73.93986511 C108.14934387 73.92579653 105.48770738 73.91347175 102.82600212 73.90391731 C98.60975432 73.88844396 94.39358113 73.86449148 90.17738342 73.83901978 C78.1873955 73.76788363 66.19736404 73.70819325 54.20727539 73.65690613 C47.5859604 73.62850852 40.96471888 73.5930721 34.34348112 73.55025238 C30.16062894 73.52362191 25.97785984 73.50562931 21.79493988 73.49421513 C18.56433459 73.48286104 15.33381861 73.45876096 12.10327148 73.43669128 C10.95639359 73.43610214 9.80951569 73.435513 8.62788391 73.43490601 C-4.05452254 73.32057324 -15.37723066 71.34121182 -24.95507812 62.44621277 C-33.20460156 53.64560781 -35.23075553 43.98208859 -34.97851562 32.31730652 C-34.47979234 23.24754966 -30.2212177 15.60532874 -24.03320312 9.11027527 C-17.05973972 3.34463396 -8.98173892 0.01236325 0 0 Z " fill="#000000" transform="translate(299.642578125,138.8662872314453)"/>
<path d="M0 0 C2.03617452 1.44390322 3.88161804 2.98215289 5.7421875 4.64453125 C6.63164062 5.36189453 6.63164062 5.36189453 7.5390625 6.09375 C13.75131325 11.55008528 19.44707763 21.34334509 20.7421875 29.64453125 C21.38335244 39.66141952 21.36778934 48.50412044 16.7421875 57.64453125 C16.29101562 58.5365625 15.83984375 59.42859375 15.375 60.34765625 C11.4898887 67.42203801 6.78956486 73.85245197 2.01635742 80.34423828 C-3.11685028 87.35240605 -7.92660986 94.55535854 -12.67602539 101.82788086 C-13.23153076 102.67358643 -13.78703613 103.51929199 -14.359375 104.390625 C-14.84744629 105.14013428 -15.33551758 105.88964355 -15.83837891 106.66186523 C-17.20393531 108.56927555 -18.44430534 110.15538413 -20.2578125 111.64453125 C-23.5078125 111.89453125 -23.5078125 111.89453125 -27.2578125 110.64453125 C-32.337811 105.88056952 -35.7551006 99.36477984 -39.42260742 93.50976562 C-42.83813345 88.12694786 -46.61888709 83.05275395 -50.4453125 77.95703125 C-55.31437757 71.43684672 -59.79676791 65.04190472 -63.2578125 57.64453125 C-63.66515625 56.91363281 -64.0725 56.18273437 -64.4921875 55.4296875 C-69.06284752 46.27271451 -68.61409005 34.66965363 -66.41015625 24.87890625 C-61.93472761 12.07462906 -53.56591834 3.72031065 -41.84375 -2.671875 C-29.15306424 -8.309997 -11.80990211 -7.09002774 0 0 Z M-47.2578125 17.39453125 C-53.70202304 25.72946371 -55.46081189 34.231472 -54.2578125 44.64453125 C-52.21849804 54.41177417 -44.96995396 62.711424 -39.2578125 70.64453125 C-37.89423643 72.54671038 -36.53127748 74.44933024 -35.16845703 76.35205078 C-34.32247231 77.53154561 -33.47454116 78.70964722 -32.62451172 79.88623047 C-30.36650449 83.0261715 -28.24739249 86.20356461 -26.2578125 89.51953125 C-25.5978125 90.55078125 -24.9378125 91.58203125 -24.2578125 92.64453125 C-23.5978125 92.64453125 -22.9378125 92.64453125 -22.2578125 92.64453125 C-20.80584932 90.87075925 -20.80584932 90.87075925 -19.3515625 88.54296875 C-18.77728516 87.66705078 -18.20300781 86.79113281 -17.61132812 85.88867188 C-16.99966797 84.94185547 -16.38800781 83.99503906 -15.7578125 83.01953125 C-11.95278721 77.19663026 -8.15740995 71.40156885 -4.00341797 65.82055664 C3.14073729 56.20773307 8.84932669 47.00038729 8.1953125 34.6484375 C7.50988372 30.10451741 6.12186202 26.55612124 3.7421875 22.64453125 C3.3296875 21.94585937 2.9171875 21.2471875 2.4921875 20.52734375 C-1.51448179 14.49457464 -7.24536024 10.34331214 -14.125 8.01171875 C-26.75963922 5.83652445 -38.12611216 7.87589445 -47.2578125 17.39453125 Z " fill="#000000" transform="translate(472.2578125,20.35546875)"/>
<path d="M0 0 C5.37441931 5.6187111 8.48573261 11.48586045 8.875 19.33203125 C8.50119166 26.93669467 5.97513979 32.70858135 0.69921875 38.18359375 C-4.84951856 42.99842994 -10.93027298 44.9652079 -18.25 44.875 C-24.8967979 44.27423173 -30.17263121 41.07108979 -35.25 36.875 C-39.85641755 31.32367629 -41.73372664 25.20730417 -41.49609375 17.98046875 C-40.64384839 10.68903622 -37.84413182 4.69321197 -32.25 -0.125 C-21.71169846 -6.80534915 -10.4738071 -6.84825849 0 0 Z M-24.25 10.875 C-27.58141153 14.09153527 -28.09287012 17.31823354 -28.25 21.875 C-26.73845126 26.01187023 -25.15963556 28.75262641 -21.25 30.875 C-17.379774 32.19439523 -14.78339883 31.99518687 -11.0625 30.5 C-7.81211412 28.69353554 -6.4322182 27.01631528 -5.0625 23.5625 C-4.22944156 20.32104825 -4.11384436 18.13648227 -5.3125 15 C-8.04661335 10.59013976 -9.60296133 9.30201003 -14.625 8 C-18.8427223 7.8545613 -20.7508336 8.56873124 -24.25 10.875 Z " fill="#000000" transform="translate(465.25,39.125)"/>
</svg>
